<svg xmlns="http://www.w3.org/2000/svg" viewBox="0 0 500 500"><g id="freepik--background-complete--inject-28"><rect y="382.4" width="500" height="0.25" style="fill:#ebebeb"></rect><rect x="416.78" y="398.49" width="33.12" height="0.25" style="fill:#ebebeb"></rect><rect x="322.53" y="401.21" width="8.69" height="0.25" style="fill:#ebebeb"></rect><rect x="396.59" y="389.21" width="19.19" height="0.25" style="fill:#ebebeb"></rect><rect x="52.46" y="390.89" width="43.19" height="0.25" style="fill:#ebebeb"></rect><rect x="104.56" y="390.89" width="6.33" height="0.25" style="fill:#ebebeb"></rect><rect x="131.47" y="395.11" width="93.68" height="0.25" style="fill:#ebebeb"></rect><path d="M237,337.8H43.91a5.71,5.71,0,0,1-5.7-5.71V60.66A5.71,5.71,0,0,1,43.91,55H237a5.71,5.71,0,0,1,5.71,5.71V332.09A5.71,5.71,0,0,1,237,337.8ZM43.91,55.2a5.46,5.46,0,0,0-5.45,5.46V332.09a5.46,5.46,0,0,0,5.45,5.46H237a5.47,5.47,0,0,0,5.46-5.46V60.66A5.47,5.47,0,0,0,237,55.2Z" style="fill:#ebebeb"></path><path d="M453.31,337.8H260.21a5.72,5.72,0,0,1-5.71-5.71V60.66A5.72,5.72,0,0,1,260.21,55h193.1A5.71,5.71,0,0,1,459,60.66V332.09A5.71,5.71,0,0,1,453.31,337.8ZM260.21,55.2a5.47,5.47,0,0,0-5.46,5.46V332.09a5.47,5.47,0,0,0,5.46,5.46h193.1a5.47,5.47,0,0,0,5.46-5.46V60.66a5.47,5.47,0,0,0-5.46-5.46Z" style="fill:#ebebeb"></path><rect x="325.34" y="131.33" width="98.94" height="109.48" style="fill:#e9e9e9"></rect><rect x="329.69" y="135.66" width="90.49" height="101.03" style="fill:#f5f5f5"></rect><polygon points="355.26 135.66 329.69 231.44 329.69 179.59 341.39 135.66 355.26 135.66" style="fill:#fff"></polygon><polygon points="366.69 135.66 339.72 236.69 334.63 236.69 361.61 135.66 366.69 135.66" style="fill:#fff"></polygon><polygon points="420.18 163.22 420.18 215.07 414.45 236.69 400.58 236.69 420.18 163.22" style="fill:#fff"></polygon><rect x="373.05" y="131.33" width="3.51" height="109.48" style="fill:#e9e9e9"></rect><rect x="327.05" y="153.54" width="95.32" height="3.51" style="fill:#e9e9e9"></rect><path d="M339.69,252.93,346,272a4.42,4.42,0,0,1-.74,4.13l-1.74,2.16L338,285.08l-1,1.32a3.47,3.47,0,0,1-5.61-4.08l.72-1.09,2.82-4.3a4.36,4.36,0,0,0,.5-3.78l-5.7-17.32Z" style="fill:#e0e0e0"></path><rect x="328.75" y="253.16" width="12.16" height="4.03" transform="translate(-63.03 117.57) rotate(-18.23)" style="fill:#f0f0f0"></rect><path d="M345.2,269.64,346,272a4.42,4.42,0,0,1-.74,4.13l-1.74,2.16-2.14-6.5Z" style="fill:#f0f0f0"></path><path d="M338,285.08l-1,1.32a3.47,3.47,0,0,1-5.61-4.08l.72-1.09Z" style="fill:#f0f0f0"></path><path d="M366.44,257.46l6.95,18.78a4.38,4.38,0,0,1-.6,4.15l-1.65,2.23-5.26,7-1,1.35a3.47,3.47,0,0,1-6-.86,3.52,3.52,0,0,1,.29-3l.68-1.11,2.66-4.4a4.35,4.35,0,0,0,.36-3.8l-6.33-17.09Z" style="fill:#e0e0e0"></path><rect x="355.58" y="257.87" width="12.16" height="4.03" transform="translate(-67.73 141.73) rotate(-20.31)" style="fill:#f0f0f0"></rect><path d="M372.55,274l.84,2.27a4.38,4.38,0,0,1-.6,4.15l-1.65,2.23-2.38-6.42Z" style="fill:#f0f0f0"></path><path d="M365.88,289.66l-1,1.35a3.47,3.47,0,0,1-6-.86,3.52,3.52,0,0,1,.29-3l.68-1.11Z" style="fill:#f0f0f0"></path><path d="M392,257.88l7.12,18.71a4.43,4.43,0,0,1-.56,4.16L396.88,283l-5.19,7.08-1,1.36a3.47,3.47,0,0,1-4.68.88,3.41,3.41,0,0,1-1.36-1.68,3.47,3.47,0,0,1,.25-3l.67-1.12,2.62-4.42a4.35,4.35,0,0,0,.33-3.8l-6.48-17Z" style="fill:#e0e0e0"></path><rect x="381.12" y="258.33" width="12.16" height="4.03" transform="translate(-67.28 154.74) rotate(-20.83)" style="fill:#f0f0f0"></rect><path d="M398.22,274.32l.86,2.27a4.43,4.43,0,0,1-.56,4.16L396.88,283l-2.43-6.39Z" style="fill:#f0f0f0"></path><path d="M391.69,290.07l-1,1.36a3.47,3.47,0,0,1-4.68.88,3.41,3.41,0,0,1-1.36-1.68,3.47,3.47,0,0,1,.25-3l.67-1.12Z" style="fill:#f0f0f0"></path><path d="M413.52,253l7.29,18.64a4.43,4.43,0,0,1-.52,4.17l-1.62,2.26-5.12,7.13-1,1.37a3.47,3.47,0,0,1-5.82-3.77l.66-1.12,2.58-4.45a4.35,4.35,0,0,0,.29-3.8l-6.64-17Z" style="fill:#e0e0e0"></path><rect x="402.7" y="253.49" width="12.16" height="4.03" transform="translate(-65 166.55) rotate(-21.37)" style="fill:#f0f0f0"></rect><path d="M419.93,269.39l.88,2.25a4.43,4.43,0,0,1-.52,4.17l-1.62,2.26-2.49-6.37Z" style="fill:#f0f0f0"></path><path d="M413.55,285.2l-1,1.37a3.47,3.47,0,0,1-5.82-3.77l.66-1.12Z" style="fill:#f0f0f0"></path><path d="M379.11,257.28A160.87,160.87,0,0,1,326,247.87l.65-1.64c.53.22,53.27,20.81,97.2,0l.76,1.58C409.68,254.92,393.73,257.28,379.11,257.28Z" style="fill:#e0e0e0"></path><path d="M328.57,247.05a2.21,2.21,0,1,1-2.2-2.21A2.21,2.21,0,0,1,328.57,247.05Z" style="fill:#e0e0e0"></path><path d="M426,247a2.21,2.21,0,1,1-2.21-2.2A2.21,2.21,0,0,1,426,247Z" style="fill:#e0e0e0"></path><rect x="75.18" y="131.33" width="98.94" height="109.48" style="fill:#e9e9e9"></rect><rect x="79.53" y="135.66" width="90.49" height="101.03" style="fill:#f5f5f5"></rect><polygon points="105.1 135.66 79.53 231.44 79.53 179.59 91.23 135.66 105.1 135.66" style="fill:#fff"></polygon><polygon points="116.53 135.66 89.56 236.69 84.48 236.69 111.45 135.66 116.53 135.66" style="fill:#fff"></polygon><polygon points="170.02 163.22 170.02 215.07 164.29 236.69 150.42 236.69 170.02 163.22" style="fill:#fff"></polygon><rect x="122.89" y="131.33" width="3.51" height="109.48" style="fill:#e9e9e9"></rect><rect x="76.9" y="153.54" width="95.32" height="3.51" style="fill:#e9e9e9"></rect><path d="M89.53,252.93l6.27,19a4.46,4.46,0,0,1-.75,4.13l-1.74,2.16-5.51,6.84-1,1.32a3.47,3.47,0,0,1-5.6-4.08l.71-1.09,2.82-4.3a4.37,4.37,0,0,0,.51-3.78l-5.71-17.32Z" style="fill:#e0e0e0"></path><rect x="78.59" y="253.16" width="12.16" height="4.03" transform="translate(-75.58 39.3) rotate(-18.23)" style="fill:#f0f0f0"></rect><path d="M95,269.64,95.8,272a4.46,4.46,0,0,1-.75,4.13l-1.74,2.16-2.14-6.5Z" style="fill:#f0f0f0"></path><path d="M87.8,285.08l-1,1.32a3.47,3.47,0,0,1-5.6-4.08l.71-1.09Z" style="fill:#f0f0f0"></path><path d="M116.28,257.46l7,18.78a4.41,4.41,0,0,1-.59,4.15L121,282.62l-5.26,7-1,1.35a3.47,3.47,0,0,1-4.69.83,3.39,3.39,0,0,1-1.34-1.69,3.48,3.48,0,0,1,.28-3l.68-1.11,2.66-4.4a4.39,4.39,0,0,0,.37-3.8l-6.33-17.09Z" style="fill:#e0e0e0"></path><rect x="105.43" y="257.87" width="12.16" height="4.03" transform="translate(-83.29 54.88) rotate(-20.31)" style="fill:#f0f0f0"></rect><path d="M122.39,274l.84,2.27a4.41,4.41,0,0,1-.59,4.15L121,282.62l-2.38-6.42Z" style="fill:#f0f0f0"></path><path d="M115.72,289.66l-1,1.35a3.47,3.47,0,0,1-4.69.83,3.39,3.39,0,0,1-1.34-1.69,3.48,3.48,0,0,1,.28-3l.68-1.11Z" style="fill:#f0f0f0"></path><path d="M141.8,257.88l7.12,18.71a4.43,4.43,0,0,1-.56,4.16L146.72,283l-5.19,7.08-1,1.36a3.47,3.47,0,0,1-5.78-3.82l.66-1.12,2.63-4.42a4.42,4.42,0,0,0,.33-3.8l-6.49-17Z" style="fill:#e0e0e0"></path><rect x="130.96" y="258.33" width="12.16" height="4.03" transform="translate(-83.63 65.77) rotate(-20.83)" style="fill:#f0f0f0"></rect><path d="M148.06,274.32l.86,2.27a4.43,4.43,0,0,1-.56,4.16L146.72,283l-2.43-6.39Z" style="fill:#f0f0f0"></path><path d="M141.53,290.07l-1,1.36a3.47,3.47,0,0,1-5.78-3.82l.66-1.12Z" style="fill:#f0f0f0"></path><path d="M163.36,253l7.29,18.64a4.41,4.41,0,0,1-.52,4.17l-1.61,2.26-5.13,7.13-1,1.37a3.47,3.47,0,0,1-5.82-3.77l.66-1.12,2.58-4.45a4.38,4.38,0,0,0,.3-3.8l-6.65-17Z" style="fill:#e0e0e0"></path><rect x="152.54" y="253.49" width="12.16" height="4.03" transform="translate(-82.21 75.38) rotate(-21.37)" style="fill:#f0f0f0"></rect><path d="M169.77,269.39l.88,2.25a4.41,4.41,0,0,1-.52,4.17l-1.61,2.26L166,271.7Z" style="fill:#f0f0f0"></path><path d="M163.39,285.2l-1,1.37a3.47,3.47,0,0,1-5.82-3.77l.66-1.12Z" style="fill:#f0f0f0"></path><path d="M129,257.28a161,161,0,0,1-53.07-9.41l.65-1.64c.53.21,53.27,20.81,97.21,0l.75,1.58C159.53,254.92,143.57,257.28,129,257.28Z" style="fill:#e0e0e0"></path><path d="M78.41,247.05a2.21,2.21,0,1,1-2.2-2.21A2.2,2.2,0,0,1,78.41,247.05Z" style="fill:#e0e0e0"></path><path d="M175.84,247a2.21,2.21,0,1,1-2.21-2.2A2.21,2.21,0,0,1,175.84,247Z" style="fill:#e0e0e0"></path><path d="M298.73,139.1c0-4-7.52-15.09-7.52-15.09s4-.71,3.17-5.26-16-8-16-8,4.52-2.52,2.14-4.54-17.63-.39-17.63-.39,3-3.13-.4-7.23-16.39,4-16.39,4-11.07-5-13.75-2.94-2.86,7.72-2.86,7.72-17.41,1.24-17.57,4.25,6.84,4.26,6.84,4.26c-4.79.14-16.17,8.56-16.11,13.17s7.86,5.83,7.86,5.83-12.27,14.48-8.55,18.41c2.14,2.25,2.67,2.19,2.73,1.74.42,2.2,1.68,8,4.09,12,3,5,5.21,1.48,5.21,1.48s2.45,14.88,8.35,18.09,7.08-1.95,7.08-1.95,4.82,6.66,8,7.75,8.7-1.41,8.7-1.41,1.19,1.9,7,3.05,14.25-9.39,14.25-9.39,4.47,2.3,5.06,1.95,8.11-9.59,8.11-9.59,5.94-.34,7.57-1.92,3.51-13.62,3.51-13.62a7.24,7.24,0,0,0,5.54-4.06c2-3.83-2.37-14.12-2.37-14.12A4.18,4.18,0,0,0,298.73,139.1ZM280.14,151c-4.16,4.95-5.34,9.76-3.56,9.92s-4.35,4.52-4.35,7.69-4.83-1.19-6.67.59,2.12,6.33-3.42,4.95-10.68-.69-11.08,1.24-1.78-3-6.53-2.3-4.94,3.83-9.69-2.6-7.91-6.85-7.91-6.85,1.38-.86-1-4.28a19,19,0,0,0-5.54-5.21s3.36-2.32,1.78-6-1.78-9.61-1.78-9.61,1.78,4,3.36,0,0-9.49,0-9.49,7.52-8.31,7.52-6.73,4.35,1.59,5.93-1.58,2.5-1.58,3.73-2,8.14-3.36,8.14-3.36,9.5,5.74,10.49,4.15,6.13-2.57,7.71,1.19,6.13,4,6.13,4,.6,10.28,3,10.28,1.38,9.1,2.77,9.69S284.29,146.05,280.14,151Z" style="fill:#ebebeb"></path><path d="M255.2,111.93a4.25,4.25,0,1,1-4.25-4.25A4.25,4.25,0,0,1,255.2,111.93Z" style="fill:#e0e0e0"></path><path d="M229.49,175.83a4.26,4.26,0,1,1-4.25-4.25A4.25,4.25,0,0,1,229.49,175.83Z" style="fill:#e0e0e0"></path><polygon points="209.91 122.2 211.39 125.21 214.71 125.7 212.31 128.04 212.88 131.35 209.91 129.78 206.94 131.35 207.5 128.04 205.1 125.7 208.42 125.21 209.91 122.2" style="fill:#e0e0e0"></polygon><polygon points="288.63 143.57 290.12 146.58 293.44 147.06 291.04 149.41 291.6 152.72 288.63 151.15 285.66 152.72 286.23 149.41 283.82 147.06 287.15 146.58 288.63 143.57" style="fill:#e0e0e0"></polygon><polygon points="259.13 175.88 261.69 178.06 264.93 177.19 263.65 180.29 265.48 183.11 262.13 182.85 260.02 185.46 259.23 182.19 256.1 180.99 258.96 179.23 259.13 175.88" style="fill:#e0e0e0"></polygon><path d="M264.3,213.52a1,1,0,0,1-.59-.2c-6.7-5-12.22-20.9-14.52-28.42-1.54,6.77-5.5,20.17-13.74,26.62a1,1,0,1,1-1.24-1.58c6.44-5,10.18-15,12.1-21.9-3.12,5.41-7.85,12.21-12.54,13.56a5.59,5.59,0,0,1-4.84-.72,5.66,5.66,0,0,1-2.44-6.72c2-6.89,13.57-14.34,22.48-14.49a.82.82,0,0,1,.22,0h0c2.49.58,24.37,5.94,26.85,13.42a4.86,4.86,0,0,1-1.12,4.81,6,6,0,0,1-5,2.23c-6.13-.3-14-8.93-18.38-14.44,2.47,7.75,7.56,21.69,13.35,26a1,1,0,0,1,.2,1.4A1,1,0,0,1,264.3,213.52Zm-16.94-31.74c-8.17,1-17.45,7.83-19,12.95a3.92,3.92,0,0,0,4.81,5C239,198,245.26,186.07,247.36,181.78Zm4.08.54c4.35,5.76,12.9,15.57,18.59,15.84a4,4,0,0,0,3.4-1.52,2.87,2.87,0,0,0,.75-2.89C272.59,189,259,184.37,251.44,182.32Z" style="fill:#e0e0e0"></path></g><g id="freepik--Shadow--inject-28"><ellipse id="freepik--path--inject-28" cx="250" cy="416.24" rx="193.89" ry="11.32" style="fill:#f5f5f5"></ellipse></g><g id="freepik--Tree--inject-28"><rect x="140.08" y="336.42" width="23.53" height="56.64" style="fill:#263238"></rect><rect x="140.08" y="336.42" width="23.53" height="56.64" style="fill:#fff;opacity:0.2"></rect><path d="M173.14,393.94V389h-42.6v4.91c-8,2.82-13.18,7.18-13.18,12.1,0,4.41,4.17,8.39,10.85,11.2h47.26c6.68-2.81,10.85-6.79,10.85-11.2C186.32,401.12,181.16,396.76,173.14,393.94Z" style="fill:#FDD535"></path><path d="M106.07,253.56s-46.24,94.91-43,98.08,17.28-18.83,17.28-18.83-7.47,30.82,0,33.55,20.86-26.54,20.45-25.43-6.49,29.75,3.25,32,24.38-26.61,24.38-26.61-.45,34.58,3.61,31,10.14-30.35,10.14-30.35,1.61,33,14,30.35,16.43-33.1,16.43-33.1,5.28,33.86,10.14,32.14S186,343.53,186,343.53s9.74,30.2,17.44,24.5,4.47-29.26,4.47-29.26,10.16,27.31,12,26.19-3.7-27.79-3.7-27.79,12.62,26.54,17,26.79-7-36.5-7-36.5,10.95,21.39,13.39,16.67-44.68-102-44.68-102Z" style="fill:#FDD535"></path><path d="M176.3,391.22H127.38a1.1,1.1,0,0,1-1.1-1.1h0a1.09,1.09,0,0,1,1.1-1.09H176.3a1.09,1.09,0,0,1,1.1,1.09h0A1.1,1.1,0,0,1,176.3,391.22Z" style="fill:#FDD535"></path><g style="opacity:0.2"><path d="M176.3,391.22H127.38a1.1,1.1,0,0,1-1.1-1.1h0a1.09,1.09,0,0,1,1.1-1.09H176.3a1.09,1.09,0,0,1,1.1,1.09h0A1.1,1.1,0,0,1,176.3,391.22Z" style="fill:#fff"></path></g><path d="M106.07,253.56s-46.24,94.91-43,98.08,17.28-18.83,17.28-18.83-7.47,30.82,0,33.55,20.86-26.54,20.45-25.43-6.49,29.75,3.25,32,24.38-26.61,24.38-26.61-.45,34.58,3.61,31,10.14-30.35,10.14-30.35,1.61,33,14,30.35,16.43-33.1,16.43-33.1,5.28,33.86,10.14,32.14S186,343.53,186,343.53s9.74,30.2,17.44,24.5,4.47-29.26,4.47-29.26,10.16,27.31,12,26.19-3.7-27.79-3.7-27.79,12.62,26.54,17,26.79-7-36.5-7-36.5,10.95,21.39,13.39,16.67-44.68-102-44.68-102Z" style="fill:#fff;opacity:0.6000000000000001"></path><path d="M169.76,194.52s50.32,83.6,50.11,91.4S203,269.24,203,269.24s7.3,20.75,0,25.62-17.45-21.81-17.45-21.81,3.25,25.41-2.84,26.79-13-25.46-13-25.46,1.63,26.21-2.84,27.09-4-25-4-25-6.09,26.07-12.58,25.05-8.92-27.11-8.92-27.11-.81,23.15-4.47,23.68-2-23.68-2-23.68-6.49,24.68-13,22.57,1.63-24.67,1.63-24.67-13.8,25.23-18.66,20.51,8.92-30.27,8.92-30.27-15,28.38-18.66,23.4,10.95-30.28,10.95-30.28S86.64,279.58,84.39,278s46-74.15,57.79-87.46S169.76,194.52,169.76,194.52Z" style="fill:#FDD535"></path><path d="M169.76,194.52s50.32,83.6,50.11,91.4S203,269.24,203,269.24s7.3,20.75,0,25.62-17.45-21.81-17.45-21.81,3.25,25.41-2.84,26.79-13-25.46-13-25.46,1.63,26.21-2.84,27.09-4-25-4-25-6.09,26.07-12.58,25.05-8.92-27.11-8.92-27.11-.81,23.15-4.47,23.68-2-23.68-2-23.68-6.49,24.68-13,22.57,1.63-24.67,1.63-24.67-13.8,25.23-18.66,20.51,8.92-30.27,8.92-30.27-15,28.38-18.66,23.4,10.95-30.28,10.95-30.28S86.64,279.58,84.39,278s46-74.15,57.79-87.46S169.76,194.52,169.76,194.52Z" style="fill:#fff;opacity:0.5"></path><path d="M155.32,153.69S195.2,218,194.86,229.55s-15-8.32-15-8.32,1.63,25.91-10.54,17.21a38.07,38.07,0,0,1-14.74-21.08s-2.68,22.18-9,21.55,0-21.55,0-21.55-12.7,18.71-17.21,18.86-.57-17.58-.57-17.58-15.3,24-18.54,12.82S155.32,153.69,155.32,153.69Z" style="fill:#FDD535"></path><path d="M155.32,153.69S195.2,218,194.86,229.55s-15-8.32-15-8.32,1.63,25.91-10.54,17.21a38.07,38.07,0,0,1-14.74-21.08s-2.68,22.18-9,21.55,0-21.55,0-21.55-12.7,18.71-17.21,18.86-.57-17.58-.57-17.58-15.3,24-18.54,12.82S155.32,153.69,155.32,153.69Z" style="fill:#fff;opacity:0.4"></path><path d="M154.57,342.4a18.23,18.23,0,0,1-2.64-.19c-18.11-2.57-23.36-26.27-24.59-33.88-5.18,4.8-20.17,17.3-30.76,12.1-12.49-6.15-9.63-28.74-9.5-29.7a1.17,1.17,0,0,1,1.33-.88,1.07,1.07,0,0,1,1.07,1.1c0,.22-2.83,22.27,8.33,27.76,10.93,5.37,29.3-13.21,29.48-13.4a1.38,1.38,0,0,1,1.29-.32,1.06,1.06,0,0,1,.85.86c0,.32,3.59,31.65,22.9,34.39s32.71-31.07,32.84-31.41a1.2,1.2,0,0,1,1-.69,1.33,1.33,0,0,1,1.17.49c4.34,6.11,17.52,21.29,26.2,18.26s6.67-24.84,5.13-33a1,1,0,0,1,1-1.14,1.21,1.21,0,0,1,1.38.83c.24,1.26,5.71,30.83-6.58,35.12a10,10,0,0,1-3.33.55c-9.78,0-20.75-13-24.53-17.84C183.46,318.64,171.7,342.4,154.57,342.4Z" style="fill:#FDD535"></path><path d="M156.35,270.94a34.05,34.05,0,0,1-6.71-.69c-23-4.68-26.15-22-26.38-29.68-4.84,6-16.39,18.66-28.39,19.61a1.19,1.19,0,0,1-1.32-.91,1.08,1.08,0,0,1,1.09-1.09c14.21-1.11,28.75-21.5,28.9-21.71A1.33,1.33,0,0,1,125,236a1,1,0,0,1,.81,1.06c-.14,1-3.17,25.61,24.45,31.21A26.74,26.74,0,0,0,168,266.18c14.22-7.18,19.82-26,19.87-26.19a1.16,1.16,0,0,1,1.1-.76,1.24,1.24,0,0,1,1.21.64c3.7,8.14,17.79,18.7,17.94,18.81a.89.89,0,0,1,.09,1.41,1.4,1.4,0,0,1-1.71.08c-.54-.4-12.08-9.06-17.19-17.06-2.12,5.65-8.16,18.77-20.05,24.78A28.42,28.42,0,0,1,156.35,270.94Z" style="fill:#FDD535"></path><path d="M186,208.08a1.55,1.55,0,0,1-.47-.08c-5.44-1.9-13.3-13.81-16.18-18.39-3.69,5-14.83,18.88-24.18,16.71-10.8-2.51-13.24-20-13.33-20.7a1.06,1.06,0,0,1,1.06-1.11,1.16,1.16,0,0,1,1.33.89c0,.16,2.35,16.85,11.59,19,7.57,1.76,18.85-11.93,22.56-17.36a1.34,1.34,0,0,1,2.13.05c2.85,4.75,11.26,17.43,16,19.08a1,1,0,0,1,.64,1.31A1.23,1.23,0,0,1,186,208.08Z" style="fill:#FDD535"></path><g style="opacity:0.7000000000000001"><path d="M154.57,342.4a18.23,18.23,0,0,1-2.64-.19c-18.11-2.57-23.36-26.27-24.59-33.88-5.18,4.8-20.17,17.3-30.76,12.1-12.49-6.15-9.63-28.74-9.5-29.7a1.17,1.17,0,0,1,1.33-.88,1.07,1.07,0,0,1,1.07,1.1c0,.22-2.83,22.27,8.33,27.76,10.93,5.37,29.3-13.21,29.48-13.4a1.38,1.38,0,0,1,1.29-.32,1.06,1.06,0,0,1,.85.86c0,.32,3.59,31.65,22.9,34.39s32.71-31.07,32.84-31.41a1.2,1.2,0,0,1,1-.69,1.33,1.33,0,0,1,1.17.49c4.34,6.11,17.52,21.29,26.2,18.26s6.67-24.84,5.13-33a1,1,0,0,1,1-1.14,1.21,1.21,0,0,1,1.38.83c.24,1.26,5.71,30.83-6.58,35.12a10,10,0,0,1-3.33.55c-9.78,0-20.75-13-24.53-17.84C183.46,318.64,171.7,342.4,154.57,342.4Z" style="fill:#fff"></path><path d="M156.35,270.94a34.05,34.05,0,0,1-6.71-.69c-23-4.68-26.15-22-26.38-29.68-4.84,6-16.39,18.66-28.39,19.61a1.19,1.19,0,0,1-1.32-.91,1.08,1.08,0,0,1,1.09-1.09c14.21-1.11,28.75-21.5,28.9-21.71A1.33,1.33,0,0,1,125,236a1,1,0,0,1,.81,1.06c-.14,1-3.17,25.61,24.45,31.21A26.74,26.74,0,0,0,168,266.18c14.22-7.18,19.82-26,19.87-26.19a1.16,1.16,0,0,1,1.1-.76,1.24,1.24,0,0,1,1.21.64c3.7,8.14,17.79,18.7,17.94,18.81a.89.89,0,0,1,.09,1.41,1.4,1.4,0,0,1-1.71.08c-.54-.4-12.08-9.06-17.19-17.06-2.12,5.65-8.16,18.77-20.05,24.78A28.42,28.42,0,0,1,156.35,270.94Z" style="fill:#fff"></path><path d="M186,208.08a1.55,1.55,0,0,1-.47-.08c-5.44-1.9-13.3-13.81-16.18-18.39-3.69,5-14.83,18.88-24.18,16.71-10.8-2.51-13.24-20-13.33-20.7a1.06,1.06,0,0,1,1.06-1.11,1.16,1.16,0,0,1,1.33.89c0,.16,2.35,16.85,11.59,19,7.57,1.76,18.85-11.93,22.56-17.36a1.34,1.34,0,0,1,2.13.05c2.85,4.75,11.26,17.43,16,19.08a1,1,0,0,1,.64,1.31A1.23,1.23,0,0,1,186,208.08Z" style="fill:#fff"></path></g><path d="M89.08,293.32a3,3,0,1,1-3-2.48A2.77,2.77,0,0,1,89.08,293.32Z" style="fill:#FDD535"></path><path d="M225.86,296.2a3,3,0,1,1-3-2.48A2.78,2.78,0,0,1,225.86,296.2Z" style="fill:#FDD535"></path><path d="M109.17,304.39a2.28,2.28,0,1,1-2.24-1.85A2.07,2.07,0,0,1,109.17,304.39Z" style="fill:#FDD535"></path><path d="M206.81,304.39a2.28,2.28,0,1,1-2.24-1.85A2.07,2.07,0,0,1,206.81,304.39Z" style="fill:#FDD535"></path><path d="M192.32,329.3a2.27,2.27,0,1,1-2.23-1.85A2.07,2.07,0,0,1,192.32,329.3Z" style="fill:#FDD535"></path><path d="M114,344.5a2.27,2.27,0,1,1-2.23-1.85A2.07,2.07,0,0,1,114,344.5Z" style="fill:#FDD535"></path><path d="M159.23,318.11h-.47l.34-.21a.19.19,0,0,0,.06-.3.3.3,0,0,0-.36,0l-.92.55h-1.52l1.07-.89,1.13-.14a.22.22,0,0,0,.22-.24.26.26,0,0,0-.29-.18l-.45.06.34-.29a.19.19,0,0,0,0-.3.3.3,0,0,0-.36,0l-.33.27.07-.34a.22.22,0,0,0-.21-.24.25.25,0,0,0-.3.17l-.18.93-1.08.89v-1.25l.69-.76a.2.2,0,0,0-.05-.3.3.3,0,0,0-.36,0l-.28.31v-.41a.23.23,0,0,0-.25-.21.24.24,0,0,0-.26.21v.39l-.24-.28a.29.29,0,0,0-.36-.05.19.19,0,0,0-.06.3l.66.76v1.23l-.83-.69-.41-1.14a.27.27,0,0,0-.32-.14c-.14,0-.22.15-.17.26l.13.39-.4-.34a.3.3,0,0,0-.36,0,.19.19,0,0,0,0,.3l.43.36-.51-.12a.27.27,0,0,0-.32.14.21.21,0,0,0,.18.26l1.42.36.82.68h-1.22l-1.26-.57a.29.29,0,0,0-.35.09.2.2,0,0,0,.11.29l.42.19h-.57a.21.21,0,1,0,0,.42h.62l-.47.21a.2.2,0,0,0-.11.29.28.28,0,0,0,.23.11l.12,0,1.31-.58h1.16l-.86.71-1.38.34a.22.22,0,0,0-.17.27.27.27,0,0,0,.32.14l.46-.11-.4.33a.19.19,0,0,0,0,.3.29.29,0,0,0,.18.07.31.31,0,0,0,.18-.07l.44-.36-.15.42c-.05.12,0,.23.17.27H154a.27.27,0,0,0,.25-.15l.42-1.19.82-.67v1l-.68,1.05a.2.2,0,0,0,.11.29.23.23,0,0,0,.12,0,.25.25,0,0,0,.22-.11l.23-.35v.48a.25.25,0,0,0,.26.21.24.24,0,0,0,.25-.21v-.52l.26.39a.27.27,0,0,0,.34.09.2.2,0,0,0,.11-.29L156,319.8v-1l1.09.9.17.94a.24.24,0,0,0,.25.18h0c.14,0,.24-.12.22-.24l-.07-.38.35.29a.31.31,0,0,0,.18.07.29.29,0,0,0,.18-.07.19.19,0,0,0,0-.3l-.33-.27.41.05a.26.26,0,0,0,.3-.17.22.22,0,0,0-.21-.25l-1.12-.15-1.08-.89h1.51l.92.57a.28.28,0,0,0,.15,0,.27.27,0,0,0,.21-.09.19.19,0,0,0,0-.29l-.37-.23h.49a.21.21,0,1,0,0-.42Z" style="fill:#FDD535"></path><path d="M204.32,348h-.47l.34-.2a.2.2,0,0,0,.06-.3.32.32,0,0,0-.36-.05L203,348h-1.52l1.06-.88,1.14-.14c.14,0,.24-.12.22-.24a.26.26,0,0,0-.29-.18l-.46.06.35-.29a.19.19,0,0,0,0-.3.27.27,0,0,0-.36,0l-.33.27.06-.34a.22.22,0,0,0-.21-.25.25.25,0,0,0-.29.18l-.19.93-1.07.89v-1.25l.68-.76a.19.19,0,0,0,0-.3.3.3,0,0,0-.36,0l-.27.31v-.41a.23.23,0,0,0-.26-.21.23.23,0,0,0-.25.21v.39l-.25-.28a.29.29,0,0,0-.36,0,.18.18,0,0,0-.05.29l.66.77v1.23l-.84-.69-.41-1.14a.26.26,0,0,0-.32-.14.21.21,0,0,0-.17.26l.14.38-.41-.33a.27.27,0,0,0-.36,0,.19.19,0,0,0,0,.3l.44.36-.51-.13a.27.27,0,0,0-.32.15.21.21,0,0,0,.17.26l1.43.36.81.67H199l-1.26-.56a.28.28,0,0,0-.35.09.19.19,0,0,0,.1.28l.43.19h-.58a.22.22,0,1,0,0,.43H198l-.47.21a.19.19,0,0,0-.1.29.27.27,0,0,0,.23.11.27.27,0,0,0,.12,0l1.31-.58h1.15l-.86.71-1.37.34a.22.22,0,0,0-.17.27.27.27,0,0,0,.32.14l.46-.12-.41.34a.19.19,0,0,0,0,.3.31.31,0,0,0,.19.06.3.3,0,0,0,.18-.06L199,350l-.16.42a.22.22,0,0,0,.17.27h.08a.24.24,0,0,0,.24-.16l.43-1.18.82-.68v1l-.68,1.05a.2.2,0,0,0,.1.29l.12,0a.28.28,0,0,0,.23-.11l.23-.35v.47a.24.24,0,0,0,.25.22.24.24,0,0,0,.26-.22v-.51l.25.39a.3.3,0,0,0,.35.09.19.19,0,0,0,.1-.29l-.7-1.09v-1l1.09.91.17.94a.25.25,0,0,0,.25.18h0a.22.22,0,0,0,.21-.24l-.06-.38.35.29a.28.28,0,0,0,.18.06.3.3,0,0,0,.18-.06.19.19,0,0,0,0-.3l-.33-.28.41.06a.27.27,0,0,0,.3-.17.23.23,0,0,0-.22-.25l-1.12-.15-1.07-.89H203l.92.57a.37.37,0,0,0,.15,0,.29.29,0,0,0,.21-.09.19.19,0,0,0-.06-.3l-.36-.22h.49a.22.22,0,1,0,0-.43Z" style="fill:#FDD535"></path><path d="M90.32,348h-.47l.34-.2a.2.2,0,0,0,.06-.3.32.32,0,0,0-.36-.05L89,348H87.45l1.06-.88,1.14-.14c.14,0,.24-.12.22-.24a.27.27,0,0,0-.29-.18l-.46.06.35-.29a.19.19,0,0,0,0-.3.27.27,0,0,0-.36,0l-.34.27.07-.34a.22.22,0,0,0-.21-.25.25.25,0,0,0-.29.18l-.19.93-1.07.89v-1.25l.68-.76a.19.19,0,0,0-.05-.3.3.3,0,0,0-.36,0l-.27.31v-.41a.24.24,0,0,0-.26-.21.23.23,0,0,0-.25.21v.39l-.25-.28a.29.29,0,0,0-.36,0,.19.19,0,0,0-.06.29l.67.77v1.23l-.84-.69-.41-1.14a.26.26,0,0,0-.32-.14.21.21,0,0,0-.17.26l.14.38-.41-.33a.27.27,0,0,0-.36,0,.19.19,0,0,0,0,.3l.44.36-.51-.13a.27.27,0,0,0-.32.15.21.21,0,0,0,.17.26l1.42.36.82.67H85l-1.26-.56a.28.28,0,0,0-.35.09.19.19,0,0,0,.1.28l.43.19h-.58a.22.22,0,1,0,0,.43H84l-.47.21a.19.19,0,0,0-.1.29.27.27,0,0,0,.22.11.28.28,0,0,0,.13,0l1.31-.58h1.15l-.86.71-1.37.34a.22.22,0,0,0-.17.27.27.27,0,0,0,.32.14l.46-.12-.41.34a.19.19,0,0,0,0,.3.3.3,0,0,0,.18.06.31.31,0,0,0,.19-.06L85,350l-.15.42a.22.22,0,0,0,.17.27h.08a.24.24,0,0,0,.24-.16l.43-1.18.82-.68v1l-.68,1.05a.2.2,0,0,0,.1.29l.12,0a.28.28,0,0,0,.23-.11l.23-.35v.47a.24.24,0,0,0,.25.22.25.25,0,0,0,.26-.22v-.51l.25.39a.3.3,0,0,0,.35.09.19.19,0,0,0,.1-.29l-.7-1.09v-1l1.09.91.17.94a.25.25,0,0,0,.25.18h0a.22.22,0,0,0,.21-.24l-.06-.38.35.29a.28.28,0,0,0,.18.06.3.3,0,0,0,.18-.06.19.19,0,0,0,0-.3l-.33-.28.41.06a.25.25,0,0,0,.29-.17.22.22,0,0,0-.21-.25l-1.12-.15-1.07-.89H89l.92.57a.37.37,0,0,0,.15,0,.29.29,0,0,0,.21-.09.19.19,0,0,0-.06-.3l-.37-.22h.5a.22.22,0,1,0,0-.43Z" style="fill:#FDD535"></path><path d="M126.65,239.46a3,3,0,1,1-3-2.48A2.78,2.78,0,0,1,126.65,239.46Z" style="fill:#FDD535"></path><path d="M116.24,261.05A2.27,2.27,0,1,1,114,259.2,2.07,2.07,0,0,1,116.24,261.05Z" style="fill:#FDD535"></path><path d="M170.11,257.35a2.27,2.27,0,1,1-2.23-1.85A2.07,2.07,0,0,1,170.11,257.35Z" style="fill:#FDD535"></path><path d="M146.32,244.82h-.47l.34-.2a.19.19,0,0,0,.06-.3.27.27,0,0,0-.35,0l-.93.55h-1.51l1.06-.88,1.14-.14a.22.22,0,0,0,.21-.24.25.25,0,0,0-.29-.18l-.45.05.35-.29a.19.19,0,0,0,0-.3.32.32,0,0,0-.37,0l-.33.28.07-.35a.22.22,0,0,0-.21-.24.26.26,0,0,0-.3.18l-.18.92-1.07.89v-1.24l.68-.77a.19.19,0,0,0-.05-.3.3.3,0,0,0-.36,0l-.27.3v-.41a.27.27,0,0,0-.52,0v.39l-.24-.28a.3.3,0,0,0-.36,0,.19.19,0,0,0-.06.3l.66.76v1.23l-.83-.69-.41-1.14a.28.28,0,0,0-.32-.14.21.21,0,0,0-.17.27l.14.38-.41-.34a.3.3,0,0,0-.36,0,.19.19,0,0,0,0,.3l.44.37-.52-.13a.28.28,0,0,0-.32.14.22.22,0,0,0,.18.27l1.42.35.82.68H141l-1.27-.56a.29.29,0,0,0-.35.08.2.2,0,0,0,.11.29l.42.19h-.57a.21.21,0,1,0,0,.42H140l-.47.21a.2.2,0,0,0-.11.29.28.28,0,0,0,.23.11.25.25,0,0,0,.12,0l1.31-.59h1.16l-.86.71-1.37.35a.21.21,0,0,0-.18.26.26.26,0,0,0,.32.14l.46-.11-.4.34a.19.19,0,0,0,0,.3.3.3,0,0,0,.18.06.28.28,0,0,0,.18-.06l.44-.37-.15.43a.2.2,0,0,0,.17.26h.07a.27.27,0,0,0,.25-.15l.43-1.18.81-.68v1l-.68,1a.2.2,0,0,0,.11.29.27.27,0,0,0,.12,0,.25.25,0,0,0,.22-.11l.23-.36v.48a.27.27,0,0,0,.52,0v-.51l.25.39a.29.29,0,0,0,.35.08.19.19,0,0,0,.1-.29l-.7-1.08v-1l1.09.9.16.94a.25.25,0,0,0,.26.19h0a.22.22,0,0,0,.22-.24l-.07-.37.35.29a.3.3,0,0,0,.18.06.28.28,0,0,0,.18-.06.19.19,0,0,0,0-.3l-.33-.28.42.06a.25.25,0,0,0,.29-.18.22.22,0,0,0-.21-.24l-1.12-.16-1.07-.89H145l.92.57a.29.29,0,0,0,.16,0,.3.3,0,0,0,.2-.08.19.19,0,0,0-.05-.3l-.37-.23h.49a.21.21,0,1,0,0-.42Z" style="fill:#FDD535"></path><path d="M202.08,266.65h-.47l.34-.2a.2.2,0,0,0,.06-.3.32.32,0,0,0-.36,0l-.92.55h-1.52l1.06-.88,1.14-.14a.22.22,0,0,0,.22-.24.26.26,0,0,0-.29-.18l-.46.06.35-.29a.19.19,0,0,0,0-.3.27.27,0,0,0-.36,0l-.33.27.06-.34a.21.21,0,0,0-.21-.24.23.23,0,0,0-.29.17l-.19.93-1.07.89v-1.25l.69-.76a.19.19,0,0,0-.06-.3.3.3,0,0,0-.36,0l-.27.31V264a.23.23,0,0,0-.26-.21.23.23,0,0,0-.25.21v.39l-.25-.28a.29.29,0,0,0-.36-.05.18.18,0,0,0-.05.29l.66.77v1.23l-.83-.69-.42-1.14a.26.26,0,0,0-.32-.14.21.21,0,0,0-.17.26l.14.38-.41-.33a.27.27,0,0,0-.36,0,.19.19,0,0,0,0,.3l.44.36-.51-.13a.27.27,0,0,0-.32.15.21.21,0,0,0,.17.26l1.43.36.81.67h-1.21l-1.26-.56a.29.29,0,0,0-.35.09.19.19,0,0,0,.1.28l.43.19h-.58a.22.22,0,1,0,0,.43h.62l-.47.21a.19.19,0,0,0-.1.29.27.27,0,0,0,.23.11l.12,0,1.31-.58H198l-.85.71-1.38.34a.22.22,0,0,0-.17.27.27.27,0,0,0,.32.14l.46-.12-.41.34a.19.19,0,0,0,0,.3.31.31,0,0,0,.19.06.3.3,0,0,0,.18-.06l.44-.36-.16.42a.22.22,0,0,0,.17.27h.08a.24.24,0,0,0,.24-.16l.43-1.18.82-.67v1l-.68,1.05a.2.2,0,0,0,.1.29l.12,0a.27.27,0,0,0,.23-.11l.23-.35v.47a.24.24,0,0,0,.25.22.24.24,0,0,0,.26-.22v-.51l.25.39a.3.3,0,0,0,.35.09.2.2,0,0,0,.11-.29l-.71-1.09v-1l1.09.91.17.94a.24.24,0,0,0,.25.18h0c.14,0,.24-.13.21-.24l-.06-.38.35.29a.28.28,0,0,0,.18.06.3.3,0,0,0,.18-.06.19.19,0,0,0,0-.3l-.33-.28.41.06a.27.27,0,0,0,.3-.17.23.23,0,0,0-.22-.25l-1.12-.15-1.07-.89h1.51l.92.57a.26.26,0,0,0,.15,0,.27.27,0,0,0,.21-.09.18.18,0,0,0-.06-.29l-.36-.23h.49a.22.22,0,1,0,0-.43Z" style="fill:#FDD535"></path><polygon points="154.73 150.61 152.25 157.34 157.81 157.34 155.51 150.61 154.73 150.61" style="fill:#FDD535"></polygon><polygon points="155.03 145.93 156.48 148.37 159.74 148.76 157.38 150.67 157.94 153.35 155.03 152.09 152.12 153.35 152.67 150.67 150.32 148.76 153.57 148.37 155.03 145.93" style="fill:#FDD535"></polygon><ellipse cx="130.91" cy="188.3" rx="2.99" ry="2.48" style="fill:#FDD535"></ellipse><path d="M188.92,312.31a3,3,0,1,1-3-2.48A2.78,2.78,0,0,1,188.92,312.31Z" style="fill:#FDD535"></path><ellipse cx="126.65" cy="308.72" rx="2.99" ry="2.48" style="fill:#FDD535"></ellipse><path d="M156.53,344.27h-.47l.34-.2a.2.2,0,0,0,.06-.3.3.3,0,0,0-.36,0l-.92.55h-1.52l1.07-.88,1.13-.14c.14,0,.24-.12.22-.24a.26.26,0,0,0-.29-.18l-.46.06.35-.29a.19.19,0,0,0,0-.3.27.27,0,0,0-.36,0l-.33.27.06-.34a.22.22,0,0,0-.21-.25.25.25,0,0,0-.29.18l-.19.93-1.07.89v-1.25L154,342a.19.19,0,0,0-.06-.3.3.3,0,0,0-.36,0l-.27.31v-.41a.23.23,0,0,0-.26-.21.23.23,0,0,0-.25.21V342l-.25-.29a.3.3,0,0,0-.36,0,.18.18,0,0,0,0,.29l.66.77V344l-.83-.69-.42-1.14a.26.26,0,0,0-.32-.14.21.21,0,0,0-.17.26l.14.38-.41-.33a.27.27,0,0,0-.36,0,.19.19,0,0,0,0,.3l.44.36-.51-.13a.27.27,0,0,0-.32.15.21.21,0,0,0,.17.26l1.43.35.81.68h-1.21l-1.26-.56a.28.28,0,0,0-.35.09.19.19,0,0,0,.1.28l.43.19h-.58a.22.22,0,1,0,0,.43h.63l-.48.21a.19.19,0,0,0-.1.29.27.27,0,0,0,.23.11.27.27,0,0,0,.12,0l1.31-.58h1.15l-.85.71-1.38.34a.22.22,0,0,0-.17.27.27.27,0,0,0,.32.14l.46-.12-.41.34a.19.19,0,0,0,0,.3.31.31,0,0,0,.19.06.3.3,0,0,0,.18-.06l.44-.36-.16.42a.22.22,0,0,0,.17.27h.08a.24.24,0,0,0,.24-.16l.43-1.18.82-.68v1l-.68,1.05a.2.2,0,0,0,.1.29l.12,0a.27.27,0,0,0,.23-.11l.23-.35v.47a.24.24,0,0,0,.25.22.24.24,0,0,0,.26-.22v-.51l.25.39a.31.31,0,0,0,.35.09.2.2,0,0,0,.11-.29l-.71-1.09v-1l1.09.91.17.94a.25.25,0,0,0,.25.18h0a.23.23,0,0,0,.22-.24l-.07-.38.35.29a.28.28,0,0,0,.18.06.3.3,0,0,0,.18-.06.19.19,0,0,0,0-.3l-.33-.28.41.06a.27.27,0,0,0,.3-.17.23.23,0,0,0-.22-.25l-1.11-.15-1.08-.89h1.51l.92.57a.37.37,0,0,0,.15,0,.27.27,0,0,0,.21-.09.19.19,0,0,0-.06-.3l-.36-.22h.49a.22.22,0,1,0,0-.43Z" style="fill:#FDD535"></path><path d="M221,329.08h-.47l.34-.2a.19.19,0,0,0,.06-.3.29.29,0,0,0-.36-.05l-.92.55h-1.52l1.07-.88,1.13-.14a.23.23,0,0,0,.22-.24.25.25,0,0,0-.29-.18l-.46.05.35-.29a.19.19,0,0,0,0-.3.3.3,0,0,0-.36,0l-.33.28.07-.35a.23.23,0,0,0-.22-.24.25.25,0,0,0-.29.18l-.18.92-1.08.89v-1.24l.69-.77a.19.19,0,0,0-.06-.3.29.29,0,0,0-.35,0l-.28.3v-.41a.24.24,0,0,0-.25-.21.24.24,0,0,0-.26.21v.39l-.25-.28a.29.29,0,0,0-.35,0,.19.19,0,0,0-.06.3l.66.76v1.23l-.83-.69-.42-1.14a.27.27,0,0,0-.32-.14.22.22,0,0,0-.17.27l.14.38-.4-.34a.32.32,0,0,0-.37,0,.19.19,0,0,0,0,.3l.44.37-.51-.13a.28.28,0,0,0-.32.14.22.22,0,0,0,.17.27l1.43.35.81.68h-1.21l-1.26-.56a.29.29,0,0,0-.35.08.19.19,0,0,0,.11.29l.42.19h-.57a.21.21,0,1,0,0,.42h.62l-.47.21a.2.2,0,0,0-.11.29.28.28,0,0,0,.23.11.25.25,0,0,0,.12,0l1.31-.59h1.15l-.85.72-1.38.34a.21.21,0,0,0-.17.26.25.25,0,0,0,.32.14l.46-.11-.4.34a.19.19,0,0,0,0,.3.28.28,0,0,0,.18.06.3.3,0,0,0,.18-.06l.44-.37-.16.43a.21.21,0,0,0,.17.26h.08a.25.25,0,0,0,.24-.15l.43-1.18.82-.68v1l-.68,1a.19.19,0,0,0,.1.29.28.28,0,0,0,.13,0,.25.25,0,0,0,.22-.11l.23-.36v.48a.23.23,0,0,0,.26.21.23.23,0,0,0,.25-.21v-.51l.26.39a.27.27,0,0,0,.34.08.2.2,0,0,0,.11-.29l-.71-1.08v-1l1.09.9.17.95a.25.25,0,0,0,.25.18h0a.22.22,0,0,0,.22-.24l-.07-.37.35.29a.3.3,0,0,0,.36,0,.19.19,0,0,0,0-.3l-.33-.28.41.06a.26.26,0,0,0,.3-.18.22.22,0,0,0-.21-.24l-1.12-.16-1.08-.89h1.51l.92.57a.26.26,0,0,0,.15,0A.3.3,0,0,0,221,330a.19.19,0,0,0-.06-.3l-.36-.23H221a.21.21,0,1,0,0-.42Z" style="fill:#FDD535"></path><path d="M100,321.75h-.47l.34-.2a.19.19,0,0,0,.06-.3.29.29,0,0,0-.36-.05l-.92.55H97.12l1.07-.88,1.13-.14a.23.23,0,0,0,.22-.24.26.26,0,0,0-.29-.18l-.45.05.34-.29a.19.19,0,0,0,0-.3.3.3,0,0,0-.36,0l-.33.28.07-.34a.22.22,0,0,0-.21-.25.26.26,0,0,0-.3.18l-.18.93-1.08.89v-1.25l.69-.77a.19.19,0,0,0,0-.29.3.3,0,0,0-.36,0l-.28.3v-.4a.24.24,0,0,0-.25-.22.25.25,0,0,0-.26.22v.39l-.24-.29a.32.32,0,0,0-.36-.05.19.19,0,0,0-.06.3l.66.77v1.22l-.83-.69L95,319.61a.27.27,0,0,0-.32-.15c-.14,0-.22.16-.17.27l.13.38-.4-.34a.3.3,0,0,0-.36,0,.19.19,0,0,0,0,.3l.43.37-.51-.13a.28.28,0,0,0-.32.14.22.22,0,0,0,.17.27l1.43.35.82.68H94.68l-1.26-.56a.29.29,0,0,0-.35.08.2.2,0,0,0,.11.29l.42.19H93a.22.22,0,1,0,0,.43h.62l-.47.21a.19.19,0,0,0-.11.28.29.29,0,0,0,.23.12l.12,0,1.31-.58h1.16l-.86.71-1.38.34a.21.21,0,0,0-.17.26.27.27,0,0,0,.32.15l.46-.12-.4.34a.19.19,0,0,0,0,.3.28.28,0,0,0,.18.06.3.3,0,0,0,.18-.06l.44-.37-.15.43c-.05.11,0,.23.17.26h.07a.27.27,0,0,0,.25-.15l.42-1.18.82-.68v1l-.68,1.05a.19.19,0,0,0,.11.28.24.24,0,0,0,.12,0,.25.25,0,0,0,.22-.11l.23-.35v.47a.24.24,0,0,0,.26.21.23.23,0,0,0,.25-.21v-.51l.26.39a.27.27,0,0,0,.34.08.19.19,0,0,0,.11-.28l-.71-1.09v-1l1.09.9.17.95a.25.25,0,0,0,.25.18h0a.23.23,0,0,0,.22-.25l-.07-.37.35.29a.3.3,0,0,0,.18.06.28.28,0,0,0,.18-.06.19.19,0,0,0,0-.3l-.33-.28.41.06a.26.26,0,0,0,.3-.18.22.22,0,0,0-.21-.24l-1.12-.15-1.08-.89h1.51l.92.56a.3.3,0,0,0,.15.05.27.27,0,0,0,.21-.09.2.2,0,0,0,0-.3l-.37-.22H100a.22.22,0,1,0,0-.43Z" style="fill:#FDD535"></path><path d="M192.77,243.51a3,3,0,1,1-3-2.48A2.78,2.78,0,0,1,192.77,243.51Z" style="fill:#FDD535"></path><path d="M160.27,271.59h-.47l.34-.2a.2.2,0,0,0,.06-.3.3.3,0,0,0-.36,0l-.92.55H157.4l1.06-.88,1.14-.14c.14,0,.24-.12.22-.24a.26.26,0,0,0-.29-.18l-.46.06.35-.29a.19.19,0,0,0,0-.3.27.27,0,0,0-.36,0l-.33.27.06-.34a.22.22,0,0,0-.21-.25.25.25,0,0,0-.29.18l-.19.93-1.07.89v-1.25l.68-.76a.19.19,0,0,0-.05-.3.3.3,0,0,0-.36,0l-.27.31v-.41a.24.24,0,0,0-.26-.21.23.23,0,0,0-.25.21v.39l-.25-.29a.3.3,0,0,0-.36,0,.19.19,0,0,0-.06.29l.67.77v1.23l-.84-.69-.41-1.14a.26.26,0,0,0-.32-.14.21.21,0,0,0-.17.26l.14.38-.41-.33a.27.27,0,0,0-.36,0,.19.19,0,0,0,0,.3l.44.36-.51-.13a.27.27,0,0,0-.32.15.21.21,0,0,0,.17.26l1.42.36.82.67H155L153.7,271a.28.28,0,0,0-.35.09.19.19,0,0,0,.1.28l.43.19h-.58a.22.22,0,1,0,0,.43h.62l-.47.21a.19.19,0,0,0-.1.29.27.27,0,0,0,.22.11.28.28,0,0,0,.13,0L155,272h1.15l-.86.71-1.37.34a.22.22,0,0,0-.17.27.27.27,0,0,0,.32.14l.46-.12-.41.34a.19.19,0,0,0,0,.3.3.3,0,0,0,.18.06.31.31,0,0,0,.19-.06l.43-.36-.15.42a.22.22,0,0,0,.17.27H155a.24.24,0,0,0,.24-.16l.43-1.18.82-.68v1l-.68,1.05a.2.2,0,0,0,.1.29l.12,0a.28.28,0,0,0,.23-.11l.23-.35v.47a.24.24,0,0,0,.25.22.25.25,0,0,0,.26-.22v-.51l.25.39a.3.3,0,0,0,.35.09.19.19,0,0,0,.1-.29l-.7-1.09v-1l1.09.91.17.94a.25.25,0,0,0,.25.18h0a.22.22,0,0,0,.21-.24l-.06-.38.35.29a.28.28,0,0,0,.18.06.3.3,0,0,0,.18-.06.19.19,0,0,0,0-.3l-.33-.28.41.06a.27.27,0,0,0,.3-.17.23.23,0,0,0-.22-.25l-1.12-.15-1.07-.89h1.51l.92.57a.37.37,0,0,0,.15,0,.25.25,0,0,0,.2-.09.19.19,0,0,0-.05-.3l-.37-.22h.5a.22.22,0,1,0,0-.43Z" style="fill:#FDD535"></path><ellipse cx="170.11" cy="189.98" rx="2.99" ry="2.48" style="fill:#FDD535"></ellipse><path d="M150.06,208.13h-.47l.34-.21a.18.18,0,0,0,.06-.29.29.29,0,0,0-.36,0l-.92.55h-1.52l1.07-.88,1.13-.14a.23.23,0,0,0,.22-.24.25.25,0,0,0-.29-.18l-.45.05.35-.29a.19.19,0,0,0,0-.3.32.32,0,0,0-.37,0l-.33.28.07-.35a.22.22,0,0,0-.21-.24.26.26,0,0,0-.3.17l-.18.93-1.08.89v-1.24l.69-.77a.2.2,0,0,0,0-.3.29.29,0,0,0-.36,0l-.28.3v-.41a.24.24,0,0,0-.25-.21.25.25,0,0,0-.26.21v.39l-.24-.28a.29.29,0,0,0-.36,0,.19.19,0,0,0-.06.3l.66.76v1.23l-.83-.69-.41-1.14a.28.28,0,0,0-.32-.14.2.2,0,0,0-.17.27l.13.38-.4-.34a.3.3,0,0,0-.36,0,.19.19,0,0,0,0,.3l.43.37-.51-.13a.28.28,0,0,0-.32.14.22.22,0,0,0,.18.27l1.42.35.82.68h-1.22l-1.26-.57a.31.31,0,0,0-.35.09.2.2,0,0,0,.11.29l.42.19h-.57a.21.21,0,1,0,0,.42h.62l-.47.21a.2.2,0,0,0-.11.29.28.28,0,0,0,.23.11l.12,0,1.31-.59H146l-.86.71-1.38.35a.21.21,0,0,0-.17.26.27.27,0,0,0,.32.14l.46-.11-.4.34a.19.19,0,0,0,0,.3.28.28,0,0,0,.18.06.3.3,0,0,0,.18-.06l.44-.37-.15.43c-.05.11,0,.23.17.26h.07a.27.27,0,0,0,.25-.15l.42-1.18.82-.68v1l-.68,1a.19.19,0,0,0,.11.29.27.27,0,0,0,.12,0,.24.24,0,0,0,.22-.12l.23-.35v.48a.24.24,0,0,0,.26.21.23.23,0,0,0,.25-.21v-.52l.26.4a.27.27,0,0,0,.34.08.19.19,0,0,0,.11-.29l-.71-1.08v-1l1.09.9.17.94a.25.25,0,0,0,.25.19h0a.22.22,0,0,0,.22-.24l-.07-.37.35.29a.3.3,0,0,0,.18.06.28.28,0,0,0,.18-.06.19.19,0,0,0,0-.3l-.33-.28.42.06a.25.25,0,0,0,.29-.18.22.22,0,0,0-.21-.24l-1.12-.16-1.08-.89h1.51l.92.57a.28.28,0,0,0,.15,0,.3.3,0,0,0,.21-.08.2.2,0,0,0-.05-.3l-.37-.23h.49a.21.21,0,1,0,0-.42Z" style="fill:#FDD535"></path><path d="M188.6,210h-.47l.35-.2a.19.19,0,0,0,.05-.3.29.29,0,0,0-.35,0l-.93.54h-1.51l1.06-.88,1.14-.14a.21.21,0,0,0,.21-.24.26.26,0,0,0-.29-.18l-.45.06.35-.29a.19.19,0,0,0,0-.3.29.29,0,0,0-.37,0l-.33.27.07-.34a.21.21,0,0,0-.21-.24.25.25,0,0,0-.3.17l-.18.93-1.07.89v-1.25l.68-.76a.19.19,0,0,0-.05-.3.3.3,0,0,0-.36,0l-.27.31v-.41a.27.27,0,0,0-.52,0v.39l-.24-.28a.29.29,0,0,0-.36-.05.19.19,0,0,0-.06.29l.66.77v1.23L184,209l-.41-1.14a.27.27,0,0,0-.32-.14.2.2,0,0,0-.17.26l.14.38-.41-.33a.27.27,0,0,0-.36,0,.19.19,0,0,0,0,.3l.44.36-.52-.13a.26.26,0,0,0-.31.15c0,.11,0,.23.17.26l1.42.36.82.67H183.3l-1.27-.56a.27.27,0,0,0-.34.09.19.19,0,0,0,.1.29l.42.18h-.57a.22.22,0,1,0,0,.43h.62l-.47.21a.19.19,0,0,0-.1.29.25.25,0,0,0,.22.11l.12,0,1.31-.58h1.16l-.86.71-1.37.34c-.14,0-.22.16-.17.27a.25.25,0,0,0,.31.14l.47-.11-.41.33a.19.19,0,0,0,0,.3.3.3,0,0,0,.18.06.28.28,0,0,0,.18-.06l.44-.36-.15.42a.21.21,0,0,0,.17.27h.07a.26.26,0,0,0,.25-.15l.43-1.19.81-.67v1l-.68,1.05a.2.2,0,0,0,.11.29l.12,0a.28.28,0,0,0,.23-.11l.22-.35v.47a.26.26,0,0,0,.52,0v-.51l.25.39a.3.3,0,0,0,.35.09.2.2,0,0,0,.1-.29l-.7-1.09v-1l1.09.9.16.94a.25.25,0,0,0,.26.18h0a.23.23,0,0,0,.22-.24l-.07-.38.35.29a.3.3,0,0,0,.18.06.28.28,0,0,0,.18-.06.18.18,0,0,0,0-.3l-.33-.27.42.05a.26.26,0,0,0,.29-.17.22.22,0,0,0-.21-.25l-1.12-.15-1.07-.89h1.5l.92.57a.29.29,0,0,0,.16,0,.27.27,0,0,0,.2-.09.18.18,0,0,0-.05-.29l-.37-.23h.49a.22.22,0,1,0,0-.43Z" style="fill:#FDD535"></path><path d="M155.28,180a2.27,2.27,0,1,1-2.23-1.85A2.07,2.07,0,0,1,155.28,180Z" style="fill:#FDD535"></path><path d="M172.34,215.13a2.27,2.27,0,1,1-2.23-1.85A2.07,2.07,0,0,1,172.34,215.13Z" style="fill:#FDD535"></path><path d="M130.13,218h-.47l.34-.21a.2.2,0,0,0,.06-.3.3.3,0,0,0-.36,0l-.92.55h-1.52l1.06-.89,1.14-.14a.22.22,0,0,0,.22-.24.28.28,0,0,0-.3-.18l-.45.06.35-.29a.19.19,0,0,0,0-.3.3.3,0,0,0-.36,0l-.34.27.07-.34c0-.12-.07-.22-.21-.24a.24.24,0,0,0-.29.17l-.19.93-1.07.89v-1.25l.68-.76a.19.19,0,0,0,0-.3.3.3,0,0,0-.36,0l-.27.31v-.41a.24.24,0,0,0-.26-.21.23.23,0,0,0-.25.21v.39l-.25-.28a.29.29,0,0,0-.36,0,.2.2,0,0,0-.06.3l.67.76v1.23l-.84-.69-.41-1.14a.26.26,0,0,0-.32-.14.21.21,0,0,0-.17.26l.14.39-.41-.34a.3.3,0,0,0-.36,0,.19.19,0,0,0,0,.3l.44.36-.51-.12a.26.26,0,0,0-.32.14.2.2,0,0,0,.17.26l1.42.36.82.68h-1.21l-1.26-.57a.29.29,0,0,0-.35.09.2.2,0,0,0,.1.29l.43.19h-.58a.21.21,0,1,0,0,.42h.62l-.47.21a.2.2,0,0,0-.1.29.27.27,0,0,0,.22.11.28.28,0,0,0,.13,0l1.31-.58H126l-.86.71-1.37.34a.21.21,0,0,0-.17.27.26.26,0,0,0,.32.14l.46-.11-.41.33a.19.19,0,0,0,0,.3.31.31,0,0,0,.18.07.32.32,0,0,0,.19-.07l.43-.36-.15.42a.22.22,0,0,0,.17.27h.08a.25.25,0,0,0,.24-.15l.43-1.19.82-.67v1l-.68,1a.2.2,0,0,0,.1.29.25.25,0,0,0,.12,0,.28.28,0,0,0,.23-.11l.23-.35v.48a.24.24,0,0,0,.25.21.25.25,0,0,0,.26-.21v-.52l.25.39a.29.29,0,0,0,.35.09.2.2,0,0,0,.1-.29l-.7-1.09v-1l1.09.9.17.94a.23.23,0,0,0,.25.18h0a.22.22,0,0,0,.21-.24l-.06-.38.35.29a.29.29,0,0,0,.18.07.31.31,0,0,0,.18-.07.19.19,0,0,0,0-.3l-.33-.27.41,0a.25.25,0,0,0,.29-.17.22.22,0,0,0-.21-.25l-1.12-.15-1.07-.89h1.5l.93.57a.26.26,0,0,0,.15,0,.25.25,0,0,0,.2-.09.18.18,0,0,0-.05-.29l-.37-.23h.5a.21.21,0,1,0,0-.42Z" style="fill:#FDD535"></path></g><g id="freepik--Table--inject-28"><path d="M263.28,272.05l-.14,0h0c-.34-.1-8.47-2.73-10.6-7a4.38,4.38,0,0,1-.26-3.55c.44-1.28,1.18-1.6,1.72-1.65,2.11-.18,5.15,3.91,7.31,7.32-1-3.51-1.84-8.12-.38-10.34a3,3,0,0,1,2.56-1.36,2.79,2.79,0,0,1,2.53,1.17c1.36,2,.59,6.25-.41,9.76,1.86-2.9,4.46-6.12,7.12-6.76a3.85,3.85,0,0,1,3.38.75,2.65,2.65,0,0,1,1.21,2.58c-.67,4.19-12.51,8.58-13.86,9.07h0A.47.47,0,0,1,263.28,272.05Zm-9.14-11.22h-.07c-.13,0-.53,0-.86,1a3.45,3.45,0,0,0,.21,2.77c1.48,2.95,6.45,5.15,8.79,6.05C259.81,266.41,256,260.83,254.14,260.83Zm19.55-.33a3.1,3.1,0,0,0-.73.09c-3.57.87-7.28,7.38-8.66,10,4.05-1.59,11.58-5.08,12-7.84a1.72,1.72,0,0,0-.83-1.63A2.88,2.88,0,0,0,273.69,260.5Zm-10.08-4.06h-.1a2,2,0,0,0-1.76.91c-1.61,2.46.28,9.22,1.55,12.79,1.37-3.67,3.48-10.65,1.88-13A1.76,1.76,0,0,0,263.61,256.44Z" style="fill:#FDD535"></path><g style="opacity:0.30000000000000004"><path d="M263.28,272.05l-.14,0h0c-.34-.1-8.47-2.73-10.6-7a4.38,4.38,0,0,1-.26-3.55c.44-1.28,1.18-1.6,1.72-1.65,2.11-.18,5.15,3.91,7.31,7.32-1-3.51-1.84-8.12-.38-10.34a3,3,0,0,1,2.56-1.36,2.79,2.79,0,0,1,2.53,1.17c1.36,2,.59,6.25-.41,9.76,1.86-2.9,4.46-6.12,7.12-6.76a3.85,3.85,0,0,1,3.38.75,2.65,2.65,0,0,1,1.21,2.58c-.67,4.19-12.51,8.58-13.86,9.07h0A.47.47,0,0,1,263.28,272.05Zm-9.14-11.22h-.07c-.13,0-.53,0-.86,1a3.45,3.45,0,0,0,.21,2.77c1.48,2.95,6.45,5.15,8.79,6.05C259.81,266.41,256,260.83,254.14,260.83Zm19.55-.33a3.1,3.1,0,0,0-.73.09c-3.57.87-7.28,7.38-8.66,10,4.05-1.59,11.58-5.08,12-7.84a1.72,1.72,0,0,0-.83-1.63A2.88,2.88,0,0,0,273.69,260.5Zm-10.08-4.06h-.1a2,2,0,0,0-1.76.91c-1.61,2.46.28,9.22,1.55,12.79,1.37-3.67,3.48-10.65,1.88-13A1.76,1.76,0,0,0,263.61,256.44Z"></path></g><rect x="237.88" y="270.02" width="49.69" height="34.14" transform="translate(525.46 574.17) rotate(180)" style="fill:#FDD535"></rect><rect x="237.88" y="270.02" width="49.69" height="34.14" transform="translate(525.46 574.17) rotate(180)" style="fill:#fff;opacity:0.6000000000000001"></rect><rect x="237.88" y="281.81" width="49.69" height="22.34" transform="translate(525.46 585.97) rotate(180)" style="isolation:isolate;opacity:0.1"></rect><rect x="267.83" y="270.02" width="19.74" height="34.14" transform="translate(555.41 574.17) rotate(180)" style="fill:#fff;opacity:0.2"></rect><rect x="250.42" y="270.02" width="4.04" height="34.14" transform="translate(504.88 574.17) rotate(180)" style="fill:#FDD535"></rect><rect x="277.63" y="270.02" width="2.97" height="34.14" transform="translate(558.23 574.17) rotate(180)" style="fill:#FDD535"></rect><rect x="250.42" y="270.02" width="4.04" height="34.14" transform="translate(504.88 574.17) rotate(180)" style="isolation:isolate;opacity:0.2"></rect><rect x="277.63" y="270.02" width="2.97" height="34.14" transform="translate(558.23 574.17) rotate(180)" style="isolation:isolate;opacity:0.1"></rect><rect x="160.98" y="307.8" width="7.73" height="109.34" style="fill:#263238"></rect><rect x="219.88" y="307.8" width="7.73" height="109.34" style="fill:#263238"></rect><rect x="288.61" y="307.8" width="7.73" height="109.34" style="fill:#263238"></rect><rect x="347.52" y="307.8" width="7.73" height="109.34" style="fill:#263238"></rect><rect x="160.98" y="307.8" width="7.73" height="109.34" style="fill:#fff;opacity:0.5"></rect><rect x="219.88" y="307.8" width="7.73" height="109.34" style="fill:#fff;opacity:0.5"></rect><rect x="288.61" y="307.8" width="7.73" height="109.34" style="fill:#fff;opacity:0.5"></rect><rect x="347.52" y="307.8" width="7.73" height="109.34" style="fill:#fff;opacity:0.5"></rect><rect x="156.82" y="304.42" width="202.58" height="12.39" style="fill:#263238"></rect><polygon points="168.71 358.83 168.71 417.14 160.97 417.14 160.97 357.05 168.71 358.83" style="fill:#fff;opacity:0.1"></polygon><polygon points="227.62 342.38 227.62 417.14 219.88 417.14 219.88 340.6 227.62 342.38" style="fill:#fff;opacity:0.2"></polygon><polygon points="296.34 358.2 296.34 417.14 288.61 417.14 288.61 356.43 296.34 358.2" style="fill:#fff;opacity:0.1"></polygon><polygon points="355.25 371.77 355.25 417.14 347.52 417.14 347.52 369.99 355.25 371.77" style="fill:#fff;opacity:0.2"></polygon><rect x="156.82" y="304.42" width="202.58" height="12.39" style="fill:#fff;opacity:0.5"></rect><rect x="223.75" y="304.42" width="135.66" height="12.39" style="fill:#fff;opacity:0.2"></rect><path d="M316.82,279.63l-.69-1.81c-9.19.42-10.22-3-10.31-4.14-.18-2.05,1.67-3.91,4.12-4.15,3.37-.35,5.61,2.67,6.76,4.66a11.29,11.29,0,0,1,7.62-3.82h0a3.53,3.53,0,0,1,3.77,2.76,3,3,0,0,1-.66,3c-2.13,2.41-8.3,1.94-10.15,1.75Zm1.09-3.67c2.79.25,6.85.07,8-1.22a1,1,0,0,0,.21-1.08c-.24-.93-.79-1.24-1.79-1.24h0A9.23,9.23,0,0,0,317.91,276Zm-7.45-4.41h-.32c-1.39.14-2.35,1.14-2.28,1.94s1.77,2.44,7.45,2.3C314.61,274.38,312.9,271.55,310.46,271.55Z" style="fill:#263238"></path><rect x="296.67" y="276.74" width="39.9" height="27.41" style="fill:#FDD535"></rect><rect x="296.67" y="276.74" width="39.9" height="27.41" style="fill:#fff;isolation:isolate;opacity:0.2"></rect><rect x="296.67" y="286.21" width="39.9" height="17.94" style="isolation:isolate;opacity:0.2"></rect><rect x="323.26" y="276.74" width="3.24" height="27.41" style="fill:#263238"></rect><rect x="302.27" y="276.74" width="2.38" height="27.41" style="fill:#263238"></rect><rect x="296.67" y="276.74" width="15.85" height="27.41" style="isolation:isolate;opacity:0.2"></rect><path d="M232.77,279.63l-.69-1.81c-9.19.42-10.22-3-10.32-4.14-.17-2.05,1.68-3.91,4.12-4.15,3.37-.35,5.62,2.67,6.76,4.66a11.31,11.31,0,0,1,7.63-3.82h0a3.53,3.53,0,0,1,3.77,2.76,3,3,0,0,1-.66,3c-2.14,2.41-8.3,1.94-10.16,1.75Zm1.09-3.67c2.79.25,6.85.07,8-1.22a1,1,0,0,0,.21-1.08c-.24-.93-.79-1.24-1.79-1.24h0A9.23,9.23,0,0,0,233.86,276Zm-7.46-4.41h-.31c-1.39.14-2.35,1.14-2.29,1.94s1.78,2.44,7.46,2.3C230.56,274.38,228.85,271.55,226.4,271.55Z" style="fill:#FDD535"></path><g style="isolation:isolate;opacity:0.2"><path d="M232.77,279.63l-.69-1.81c-9.19.42-10.22-3-10.32-4.14-.17-2.05,1.68-3.91,4.12-4.15,3.37-.35,5.62,2.67,6.76,4.66a11.31,11.31,0,0,1,7.63-3.82h0a3.53,3.53,0,0,1,3.77,2.76,3,3,0,0,1-.66,3c-2.14,2.41-8.3,1.94-10.16,1.75Zm1.09-3.67c2.79.25,6.85.07,8-1.22a1,1,0,0,0,.21-1.08c-.24-.93-.79-1.24-1.79-1.24h0A9.23,9.23,0,0,0,233.86,276Zm-7.46-4.41h-.31c-1.39.14-2.35,1.14-2.29,1.94s1.78,2.44,7.46,2.3C230.56,274.38,228.85,271.55,226.4,271.55Z"></path></g><rect x="212.62" y="276.74" width="39.9" height="27.41" style="fill:#263238"></rect><rect x="212.62" y="276.74" width="39.9" height="27.41" style="fill:#fff;isolation:isolate;opacity:0.5"></rect><rect x="212.62" y="286.21" width="39.9" height="17.94" style="isolation:isolate;opacity:0.2"></rect><rect x="239.21" y="276.74" width="3.24" height="27.41" style="fill:#FDD535"></rect><rect x="218.22" y="276.74" width="2.38" height="27.41" style="fill:#FDD535"></rect><rect x="212.62" y="276.74" width="15.85" height="27.41" style="isolation:isolate;opacity:0.2"></rect><path d="M194.1,293h0c-.23,0-5.66-.27-7.68-3a3.9,3.9,0,0,1-.59-3.46c.28-1.13.83-1.77,1.63-1.91,2.39-.42,6.15,4.41,7.47,6.23.92-1.37,3.27-4.49,5.68-4.88a2.9,2.9,0,0,1,2.45.73c1.27,1.11,1.25,2.12,1,2.77C203.18,291.79,198.39,293,194.1,293Zm-6.31-7.39h-.17q-.57.11-.84,1.17a2.92,2.92,0,0,0,.42,2.63c1.7,2.28,6.66,2.57,6.92,2.58h.37C192.72,289.44,189.44,285.6,187.79,285.6ZM201.08,287a1.83,1.83,0,0,0-.33,0c-2.42.38-5,4.48-5.36,5,4.23-.23,7.25-1.58,7.72-2.83.19-.52-.05-1.08-.73-1.67A2,2,0,0,0,201.08,287Z" style="fill:#263238"></path><rect x="175.6" y="291.75" width="39.9" height="12.4" style="fill:#FDD535"></rect><rect x="175.6" y="291.75" width="39.9" height="12.4" style="fill:#fff;isolation:isolate;opacity:0.2"></rect><rect x="175.6" y="296.22" width="39.9" height="7.93" style="isolation:isolate;opacity:0.2"></rect><rect x="202.19" y="291.75" width="3.24" height="12.4" style="fill:#263238"></rect><rect x="181.2" y="291.75" width="2.38" height="12.4" style="fill:#263238"></rect><rect x="175.6" y="291.75" width="15.85" height="12.4" style="isolation:isolate;opacity:0.2"></rect></g><g id="freepik--Gifts--inject-28"><path d="M316.32,385l-.15,0h0c-.35-.11-8.48-2.73-10.61-7a4.46,4.46,0,0,1-.26-3.55c.45-1.29,1.18-1.61,1.72-1.65,2.11-.18,5.16,3.91,7.31,7.32-1-3.51-1.84-8.12-.38-10.34a3,3,0,0,1,2.56-1.37,2.81,2.81,0,0,1,2.53,1.18c1.37,2,.59,6.25-.41,9.75,1.87-2.9,4.47-6.11,7.12-6.75a3.79,3.79,0,0,1,3.38.75,2.63,2.63,0,0,1,1.21,2.57c-.66,4.2-12.5,8.59-13.85,9.08h0A.9.9,0,0,1,316.32,385Zm-9.15-11.23h-.07c-.13,0-.53,0-.86,1a3.42,3.42,0,0,0,.22,2.77c1.47,2.95,6.44,5.15,8.78,6.05C312.85,379.4,309,373.81,307.17,373.81Zm19.55-.32a3.1,3.1,0,0,0-.73.09c-3.57.86-7.27,7.37-8.65,10,4.05-1.59,11.58-5.08,12-7.84a1.73,1.73,0,0,0-.84-1.63A2.88,2.88,0,0,0,326.72,373.49Zm-10.07-4.06h-.1a2,2,0,0,0-1.76.92c-1.62,2.46.27,9.22,1.54,12.79,1.38-3.67,3.48-10.65,1.89-13A1.77,1.77,0,0,0,316.65,369.43Z" style="fill:#FDD535"></path><g style="opacity:0.30000000000000004"><path d="M316.32,385l-.15,0h0c-.35-.11-8.48-2.73-10.61-7a4.46,4.46,0,0,1-.26-3.55c.45-1.29,1.18-1.61,1.72-1.65,2.11-.18,5.16,3.91,7.31,7.32-1-3.51-1.84-8.12-.38-10.34a3,3,0,0,1,2.56-1.37,2.81,2.81,0,0,1,2.53,1.18c1.37,2,.59,6.25-.41,9.75,1.87-2.9,4.47-6.11,7.12-6.75a3.79,3.79,0,0,1,3.38.75,2.63,2.63,0,0,1,1.21,2.57c-.66,4.2-12.5,8.59-13.85,9.08h0A.9.9,0,0,1,316.32,385Zm-9.15-11.23h-.07c-.13,0-.53,0-.86,1a3.42,3.42,0,0,0,.22,2.77c1.47,2.95,6.44,5.15,8.78,6.05C312.85,379.4,309,373.81,307.17,373.81Zm19.55-.32a3.1,3.1,0,0,0-.73.09c-3.57.86-7.27,7.37-8.65,10,4.05-1.59,11.58-5.08,12-7.84a1.73,1.73,0,0,0-.84-1.63A2.88,2.88,0,0,0,326.72,373.49Zm-10.07-4.06h-.1a2,2,0,0,0-1.76.92c-1.62,2.46.27,9.22,1.54,12.79,1.38-3.67,3.48-10.65,1.89-13A1.77,1.77,0,0,0,316.65,369.43Z"></path></g><rect x="290.92" y="383.01" width="49.69" height="34.13" transform="translate(631.53 800.15) rotate(180)" style="fill:#FDD535"></rect><rect x="290.92" y="383.01" width="49.69" height="34.13" transform="translate(631.53 800.15) rotate(180)" style="fill:#fff;opacity:0.6000000000000001"></rect><rect x="290.92" y="394.8" width="49.69" height="22.34" transform="translate(631.53 811.94) rotate(180)" style="isolation:isolate;opacity:0.1"></rect><rect x="320.86" y="383.01" width="19.74" height="34.13" transform="translate(661.47 800.15) rotate(180)" style="fill:#fff;opacity:0.2"></rect><rect x="303.46" y="383.01" width="4.04" height="34.13" transform="translate(610.95 800.15) rotate(180)" style="fill:#FDD535"></rect><rect x="330.67" y="383.01" width="2.97" height="34.13" transform="translate(664.3 800.15) rotate(180)" style="fill:#FDD535"></rect><rect x="303.46" y="383.01" width="4.04" height="34.13" transform="translate(610.95 800.15) rotate(180)" style="isolation:isolate;opacity:0.2"></rect><rect x="330.67" y="383.01" width="2.97" height="34.13" transform="translate(664.3 800.15) rotate(180)" style="isolation:isolate;opacity:0.1"></rect><path d="M279.8,392.61l-.69-1.8c-9.19.42-10.22-3-10.32-4.15-.17-2,1.68-3.9,4.12-4.15,3.37-.34,5.62,2.68,6.76,4.67a11.31,11.31,0,0,1,7.62-3.82h0a3.52,3.52,0,0,1,3.77,2.76,3,3,0,0,1-.66,3c-2.14,2.41-8.3,1.94-10.16,1.75Zm1.09-3.66c2.79.25,6.85.06,8-1.22a1,1,0,0,0,.2-1.08c-.23-.93-.78-1.24-1.78-1.24h0A9.23,9.23,0,0,0,280.89,389Zm-7.46-4.41h-.31c-1.39.14-2.35,1.14-2.29,1.94s1.77,2.44,7.46,2.3C277.59,387.37,275.88,384.54,273.43,384.54Z" style="fill:#263238"></path><rect x="259.65" y="389.73" width="39.9" height="27.41" style="fill:#FDD535"></rect><rect x="259.65" y="389.73" width="39.9" height="27.41" style="fill:#fff;isolation:isolate;opacity:0.2"></rect><rect x="259.65" y="399.2" width="39.9" height="17.94" style="isolation:isolate;opacity:0.2"></rect><rect x="286.24" y="389.73" width="3.24" height="27.41" style="fill:#263238"></rect><rect x="265.25" y="389.73" width="2.38" height="27.41" style="fill:#263238"></rect><rect x="259.65" y="389.73" width="15.85" height="27.41" style="isolation:isolate;opacity:0.2"></rect><path d="M202.75,392.61l-.69-1.8c-9.19.42-10.22-3-10.31-4.15-.18-2,1.67-3.9,4.11-4.15,3.37-.34,5.62,2.68,6.76,4.67a11.33,11.33,0,0,1,7.63-3.82h0a3.52,3.52,0,0,1,3.77,2.76,3,3,0,0,1-.66,3c-2.13,2.41-8.3,1.94-10.15,1.75Zm1.09-3.66c2.79.25,6.85.06,8-1.22a1,1,0,0,0,.21-1.08c-.24-.93-.79-1.24-1.79-1.24h0A9.23,9.23,0,0,0,203.84,389Zm-7.45-4.41h-.32c-1.39.14-2.35,1.14-2.28,1.94s1.77,2.44,7.45,2.3C200.54,387.37,198.83,384.54,196.39,384.54Z" style="fill:#FDD535"></path><g style="isolation:isolate;opacity:0.2"><path d="M202.75,392.61l-.69-1.8c-9.19.42-10.22-3-10.31-4.15-.18-2,1.67-3.9,4.11-4.15,3.37-.34,5.62,2.68,6.76,4.67a11.33,11.33,0,0,1,7.63-3.82h0a3.52,3.52,0,0,1,3.77,2.76,3,3,0,0,1-.66,3c-2.13,2.41-8.3,1.94-10.15,1.75Zm1.09-3.66c2.79.25,6.85.06,8-1.22a1,1,0,0,0,.21-1.08c-.24-.93-.79-1.24-1.79-1.24h0A9.23,9.23,0,0,0,203.84,389Zm-7.45-4.41h-.32c-1.39.14-2.35,1.14-2.28,1.94s1.77,2.44,7.45,2.3C200.54,387.37,198.83,384.54,196.39,384.54Z"></path></g><rect x="182.6" y="389.73" width="39.9" height="27.41" style="fill:#263238"></rect><rect x="182.6" y="389.73" width="39.9" height="27.41" style="fill:#fff;isolation:isolate;opacity:0.5"></rect><rect x="182.6" y="399.2" width="39.9" height="17.94" style="isolation:isolate;opacity:0.2"></rect><rect x="209.19" y="389.73" width="3.24" height="27.41" style="fill:#FDD535"></rect><rect x="188.2" y="389.73" width="2.38" height="27.41" style="fill:#FDD535"></rect><rect x="182.6" y="389.73" width="15.85" height="27.41" style="isolation:isolate;opacity:0.2"></rect><path d="M225.12,406h0c-.23,0-5.66-.27-7.68-3a3.92,3.92,0,0,1-.59-3.47c.28-1.12.83-1.76,1.63-1.9,2.39-.42,6.15,4.41,7.47,6.23.92-1.37,3.27-4.5,5.68-4.88a2.91,2.91,0,0,1,2.45.73c1.27,1.1,1.25,2.11,1,2.76C234.2,404.77,229.41,406,225.12,406Zm-6.31-7.39h-.17q-.57.11-.84,1.17a2.89,2.89,0,0,0,.42,2.62c1.7,2.29,6.66,2.58,6.92,2.59h.36C223.74,402.43,220.46,398.59,218.81,398.59Zm13.29,1.34-.33,0c-2.42.38-5,4.47-5.36,5,4.23-.23,7.25-1.58,7.72-2.84.19-.51,0-1.07-.73-1.66A1.93,1.93,0,0,0,232.1,399.93Z" style="fill:#263238"></path><rect x="206.62" y="404.74" width="39.9" height="12.4" style="fill:#FDD535"></rect><rect x="206.62" y="404.74" width="39.9" height="12.4" style="fill:#fff;isolation:isolate;opacity:0.2"></rect><rect x="206.62" y="409.21" width="39.9" height="7.93" style="isolation:isolate;opacity:0.2"></rect><rect x="233.21" y="404.74" width="3.24" height="12.4" style="fill:#263238"></rect><rect x="212.22" y="404.74" width="2.38" height="12.4" style="fill:#263238"></rect><rect x="206.62" y="404.74" width="15.85" height="12.4" style="isolation:isolate;opacity:0.2"></rect></g><g id="freepik--speech-bubble--inject-28"><polygon points="315.4 169.15 327.46 181.38 322.15 181.95 334.58 190.73 327.42 183.41 333.19 182.79 326.02 168 315.4 169.15" style="fill:#FDD535"></polygon><polygon points="315.4 169.15 327.46 181.38 322.15 181.95 334.58 190.73 327.42 183.41 333.19 182.79 326.02 168 315.4 169.15" style="fill:#fff;opacity:0.7000000000000001"></polygon><rect x="281.33" y="137.47" width="58.62" height="40.96" rx="6.13" transform="translate(-15.18 34.31) rotate(-6.17)" style="fill:#FDD535"></rect><rect x="281.33" y="137.47" width="58.62" height="40.96" rx="6.13" transform="translate(-15.18 34.31) rotate(-6.17)" style="fill:#fff;opacity:0.7000000000000001"></rect><path d="M302.25,152l.35,3.2a6.15,6.15,0,0,1-3.27,1.45,4.28,4.28,0,0,1-4.91-3.77,4.34,4.34,0,0,1,4.1-4.73A5.3,5.3,0,0,1,302,149l-.91,1.46a3.49,3.49,0,0,0-2.39-.68,2.62,2.62,0,1,0,.57,5.21,4,4,0,0,0,1.59-.63l-.24-2.2Z" style="fill:#FDD535"></path><path d="M304.36,156l-.9-8.35,1.88-.2.9,8.34Z" style="fill:#FDD535"></path><path d="M310.45,155.37l-4.18-8,2-.22,3,6.05,1.6-6.55,1.95-.21-2.41,8.71Z" style="fill:#FDD535"></path><path d="M317.78,147.71l.2,1.81,4-.43.17,1.56-4,.44.2,1.84,4.6-.49.17,1.56-6.49.7-.9-8.35,6.36-.68.17,1.56Z" style="fill:#FDD535"></path><path d="M293.1,167.76l-.48,1.7-1.94.21,2.72-8.74,2-.21,4.46,8-2,.22-.83-1.55Zm1.43-5-1,3.38,2.63-.28Z" style="fill:#FDD535"></path><path d="M307.23,167.88l-2.32-5.77-1.07,6.13-1.95.21-3.65-8,2-.22,2.44,6.1,1.06-6.48,1.84-.2,2.45,6.1,1.06-6.48L311,159l-1.86,8.65Z" style="fill:#FDD535"></path><path d="M313.61,165.55l-.48,1.69-1.94.21,2.72-8.74,1.94-.21,4.47,8-2,.22-.83-1.55Zm1.43-5-1,3.39,2.63-.29Z" style="fill:#FDD535"></path><path d="M324.58,166l-1.88.21-.29-2.65-3.7-5.37,1.89-.2,2.54,3.51,1.69-4,1.89-.2-2.43,6Z" style="fill:#FDD535"></path><path d="M332.26,162.32l-1.12.13-.67-3.33-.23-2.11,1.74-.19.23,2.11Zm.56,1.93a.93.93,0,0,1-.83,1.06.91.91,0,0,1-1-.86.89.89,0,0,1,.81-1A.91.91,0,0,1,332.82,164.25Z" style="fill:#FDD535"></path></g><g id="freepik--Character--inject-28"><path d="M361.41,238a98.28,98.28,0,0,1-17.76,10.09c-2.6,1.21-5.16-.9-5.69-3.29-.77-2.84.06-5.69.81-8.24a80.32,80.32,0,0,1,6.11-13.51c1.2-2.12,2.4-4.19,3.74-6.25a2.18,2.18,0,0,1,3.86,2c-1.67,4.35-3.35,8.81-4.8,13.23-1,3.43-2.39,7-2.26,10.46,0,.22.18.14-.25-.48l-4.84-1c2.73-1.57,5.42-3.23,8.1-4.9s5.39-3.48,7.95-5.19a4.38,4.38,0,0,1,5,7.16Z" style="fill:#e9b376"></path><path d="M364.48,227c-6.24-.41-16,6.61-16,6.61s1.27,12.14,4.34,13.39S364.48,227,364.48,227Z" style="fill:#FDD535"></path><path d="M364.48,227s-5.73,14.19-9.5,18.69c-.84,1-1.59,1.54-2.15,1.31-1.2-.49-2.13-2.65-2.81-5.09a59.05,59.05,0,0,1-1.53-8.3S358.24,226.6,364.48,227Z" style="fill:#fff;opacity:0.7000000000000001"></path><path d="M355,245.7c-.84,1-1.59,1.54-2.15,1.31-1.2-.49-2.13-2.65-2.81-5.09a20.56,20.56,0,0,1,5.54-4.17C356.27,239.85,355.92,243.08,355,245.7Z" style="opacity:0.1"></path><path d="M353.73,237.12a87.13,87.13,0,0,0-1.89,11.62c-.68,5.7-1.17,11.34-1.82,20.76L378.54,274c.7-8.12,3.08-17.13,11.07-34.4a6.73,6.73,0,0,0-4.32-9.54c-1.12-.3-2.3-.58-3.52-.84a92.06,92.06,0,0,0-12.95-2c-1.43-.09-2.92-.15-4.34-.17C359.33,226.91,354.68,232.11,353.73,237.12Z" style="fill:#FDD535"></path><path d="M389.61,239.61l-.54,1.18c-2.18,4.77-3.93,8.89-5.32,12.54-3.43,9-4.72,15-5.21,20.69L350,269.5c.65-9.42,1.14-15.06,1.82-20.76a87.13,87.13,0,0,1,1.89-11.62c.95-5,5.6-10.21,10.75-10.11,1.42,0,2.91.08,4.34.17a92.06,92.06,0,0,1,12.95,2c1.22.26,2.4.54,3.52.84A6.73,6.73,0,0,1,389.61,239.61Z" style="fill:#fff;opacity:0.7000000000000001"></path><path d="M363.15,417.14c5.35,0,6.06-.09,9.06-.19,2.58-.09,3.19.23,5.26.19,1.73,0,1.66-1.69,1.13-3.6-.27-1-.68-3-1-4.52l-7.84-.57c-1.11,2.11-3.59,5.11-6.61,5.52S361,417.14,363.15,417.14Z" style="fill:#263238"></path><path d="M368,399.15a54,54,0,0,0,7.89-9.6c1.46-2.08,1.74-1.56,3.29-3.61a2.45,2.45,0,0,0-1.4-3.7,22.73,22.73,0,0,1-4-1.19L368.39,385c1,2.51-.31,9.61-3.06,12.52C363.36,399.6,366.4,400.57,368,399.15Z" style="fill:#263238"></path><path d="M350,269.5s-15.38,43.95-17.37,60c-1.94,15.73,36.16,56.64,36.16,56.64.93.7,4.74-4,5-5.29-9.47-18.3-15.36-45.4-24.87-52,22.8-33.8,26-55.42,26-55.42Z" style="fill:#263238"></path><path d="M360.82,285s-1.25,16.16-1.58,27.16c3-5.37,5.46-10.26,7.44-14.63Z" style="opacity:0.30000000000000004"></path><path d="M364.12,381.49c.83,1.12,2.3,3.13,3.35,4.64.35.5.88.77,1.19.62,2.39-1.11,5.23-4.12,6.15-5.14.18-.2.13-.6-.11-1l-2.61-4.32c-.35-.59-1-.93-1.31-.71l-6.79,4.7C363.71,380.48,363.76,381,364.12,381.49Z" style="fill:#FDD535"></path><path d="M357.47,270.68s5.72,44.26,9,65.57c3.44,22.37,3.88,58.26,3,72.89,1.25.73,5.79.23,8.26-.55,0,0,14.85-48,3.94-70.14,7.06-51.76-3.15-64.44-3.15-64.44Z" style="fill:#263238"></path><path d="M369.16,403c-.16,1.31-.46,3.58-.85,5.3a1.16,1.16,0,0,0,.47,1.37c3.33,1.18,8.39.44,10,.16a1,1,0,0,0,.67-.86l1-4.94c.13-.67-.15-1.32-.6-1.35L370,402C369.58,401.93,369.23,402.36,369.16,403Z" style="fill:#FDD535"></path><path d="M350.07,210.13l1.74,1.27a2.51,2.51,0,0,1,1,2l0,3.79a4.68,4.68,0,0,1-2,3.78l-.78.54c-3-1.91-4.89-6.21-4.89-6.21l-.67-1.17a2.09,2.09,0,0,1,.72-2.88l2.29-1.35A2.39,2.39,0,0,1,350.07,210.13Z" style="fill:#ebb376"></path><path d="M355.62,206.37c2-2.46,5.17-3.2,7.1-1.64s1.86,4.82-.13,7.28-5.18,3.2-7.1,1.64S353.63,208.83,355.62,206.37Z" style="fill:#FDD535"></path><path d="M340,193.82l6.91-8.73s2.3,8.48,7.06,12.34l-3.5,4.31-.55.68-3.5,4.33c-4.76-3.86-13.53-4.35-13.53-4.35Z" style="fill:#FDD535"></path><path d="M355.62,206.37c2-2.46,5.17-3.2,7.1-1.64s1.86,4.82-.13,7.28-5.18,3.2-7.1,1.64S353.63,208.83,355.62,206.37Z" style="fill:#fff;isolation:isolate;opacity:0.8"></path><path d="M340,193.82l6.91-8.73s2.3,8.48,7.06,12.34l-3.5,4.31-.55.68-3.5,4.33c-4.76-3.86-13.53-4.35-13.53-4.35Z" style="fill:#fff;isolation:isolate;opacity:0.8"></path><path d="M355,212.08s-4.74,4.83-8.62,6.22a.6.6,0,0,1-.72-.28l-2.37-4.27a.59.59,0,0,1,.38-.87c1.6-.4,5.37-1.5,7.79-3.52C354.6,206.73,355,212.08,355,212.08Z" style="fill:#FDD535"></path><path d="M355,212.08s-4.74,4.83-8.62,6.22a.6.6,0,0,1-.72-.28l-2.37-4.27a.59.59,0,0,1,.38-.87c1.6-.4,5.37-1.5,7.79-3.52C354.6,206.73,355,212.08,355,212.08Z" style="isolation:isolate;opacity:0.30000000000000004"></path><path d="M332.85,202.68c1.09.89,5.17-2.35,9.12-7.22s6.27-9.54,5.18-10.43-5.18,2.36-9.13,7.23S331.76,201.8,332.85,202.68Z" style="fill:#fff"></path><path d="M333.62,201.18c.81.66,4-1.89,7.27-5.78.19-.22.37-.45.56-.68s.45-.56.65-.83c3.07-4,4.86-7.53,4-8.19s-4.38,2.19-7.85,6.47S332.75,200.47,333.62,201.18Z" style="isolation:isolate;opacity:0.4"></path><path d="M355.81,214.74s1.45-.7,4.53-4.5c3.32-4.1,3.47-5.39,3.47-5.39l-10.62-8.6s-.42,1.63-3.54,5.48-4.46,4.4-4.46,4.4Z" style="fill:#FDD535"></path><path d="M340.89,195.4c.19-.22.37-.45.56-.68s.45-.56.65-.83L341,193.3a.59.59,0,0,0-.72.19l-.12.16a.56.56,0,0,0,0,.74Z" style="fill:#fff"></path><path d="M340.89,195.4c.19-.22.37-.45.56-.68s.45-.56.65-.83L341,193.3a.59.59,0,0,0-.72.19l-.12.16a.56.56,0,0,0,0,.74Z" style="isolation:isolate;opacity:0.2"></path><path d="M371,196.25s-3.46,2.44-3.82,5,1.91,6.21,1.91,6.21.75,2.7-2.33,4.35-4.78,1.92-4.33,5.68a3.51,3.51,0,0,1-2.87,4.22s3.15,4.19,6.86,2.4,6.92,4.48,11.45,2.24,4.88.92,9.62,1.26,6.45-2.15,6.45-2.15-4-4.44-3.66-8.71,2.58-4.82,1.51-13.1S381.29,188.65,371,196.25Z" style="fill:#263238"></path><path d="M383.17,214.5c-1.79,4-4.38,11.41-2.11,14.62,0,0-3.86-1.22-13.06,2.64-1.87-3.87.11-4.69.11-4.69,4.9-.36,5.58-3.79,5.53-7.12Z" style="fill:#ebb376"></path><path d="M379.28,216.73,373.64,220a13,13,0,0,1-.13,2.34c1.83,0,4.73-1.52,5.35-3.32A6,6,0,0,0,379.28,216.73Z" style="opacity:0.2"></path><path d="M388.05,206.7c-2.33,6.53-3.17,9.34-7.52,12-6.55,3.94-14.08.11-13.75-6.87.3-6.28,4.06-15.9,11.34-17A8.88,8.88,0,0,1,388.05,206.7Z" style="fill:#ebb376"></path><path d="M379.28,206.46c-.17.56-.6.94-1,.86s-.51-.61-.34-1.16.6-.94,1-.86S379.45,205.91,379.28,206.46Z" style="fill:#263238"></path><path d="M372.32,204.6c-.17.56-.61.94-1,.86s-.51-.61-.34-1.16.61-.94,1-.86S372.49,204.05,372.32,204.6Z" style="fill:#263238"></path><path d="M372.13,203.51l-1.21-.7S371.28,204,372.13,203.51Z" style="fill:#263238"></path><path d="M374.08,205.48a16.8,16.8,0,0,1-3.06,3.09,2.3,2.3,0,0,0,1.85.83Z" style="fill:#d58745"></path><path d="M381.39,203.22a.3.3,0,0,1-.21-.14,2.49,2.49,0,0,0-2.05-1.18.31.31,0,0,1-.33-.32.38.38,0,0,1,.35-.35,3.13,3.13,0,0,1,2.61,1.46.37.37,0,0,1-.37.53Z" style="fill:#263238"></path><path d="M370.57,200.26a.31.31,0,0,1-.22-.09.34.34,0,0,1,0-.48,3.53,3.53,0,0,1,3-1,.31.31,0,0,1,.24.39.38.38,0,0,1-.42.27,2.79,2.79,0,0,0-2.35.83A.39.39,0,0,1,370.57,200.26Z" style="fill:#263238"></path><path d="M379.09,205.37l-1.2-.69S378.24,205.88,379.09,205.37Z" style="fill:#263238"></path><path d="M371.42,212a22.36,22.36,0,0,1-.07,3.22l.55.14a4.91,4.91,0,0,0,4.68-.86,2.66,2.66,0,0,0,.7-1.23,5.09,5.09,0,0,0,.16-.93c-.91-.85-3.82-1.23-5.14-.7A4.78,4.78,0,0,0,371.42,212Z" style="fill:#263238"></path><path d="M372.3,211.65c0,.34,0,.68,0,1a23.22,23.22,0,0,1,5,.59,5.09,5.09,0,0,0,.16-.93C376.53,211.5,373.62,211.12,372.3,211.65Z" style="fill:#fff"></path><path d="M371.9,215.37a4.91,4.91,0,0,0,4.68-.86,3.58,3.58,0,0,0-2.89-.38A3.78,3.78,0,0,0,371.9,215.37Z" style="fill:#de5753"></path><path d="M385.28,211.41s-1.56-7.67,0-13.63c0,0-7.55-4.29-12.73-.06,0,0,2-4.52,9.26-4S395.66,204.51,385.28,211.41Z" style="fill:#263238"></path><path d="M388.68,212.67a5.61,5.61,0,0,1-3.9,1.7c-1.89,0-2.19-2-1.13-3.57s3.08-3.21,4.72-2.42S390,211.34,388.68,212.67Z" style="fill:#ebb376"></path><path d="M372.55,193.66s9.32-6.27,14.43-5.64,10.65,6.53,11.45,9.94,5.64,4.57,5.64,4.57a3.7,3.7,0,0,1-.62,1.92c-.54.49-4.84.65-6.81-.82,0,0-1.37,6.55-5.25,8.72C391.39,212.35,389.54,193.4,372.55,193.66Z" style="fill:#FDD535"></path><path d="M389,208.88c-4.25-11.45-15.3-15.71-17.93-12.63,0,0-1.52-4.89,5.36-3.6,10.6,2,19.9,16.65,13.92,24.08A33.16,33.16,0,0,0,389,208.88Z" style="fill:#FDD535"></path><path d="M389,208.88c-4.25-11.45-15.3-15.71-17.93-12.63,0,0-1.52-4.89,5.36-3.6,10.6,2,19.9,16.65,13.92,24.08A33.16,33.16,0,0,0,389,208.88Z" style="fill:#fff;opacity:0.7000000000000001"></path><path d="M402,203.5a2.81,2.81,0,1,0,2.81-2.81A2.81,2.81,0,0,0,402,203.5Z" style="fill:#FDD535"></path><path d="M402,203.5a2.81,2.81,0,1,0,2.81-2.81A2.81,2.81,0,0,0,402,203.5Z" style="fill:#fff;opacity:0.7000000000000001"></path><path d="M369.93,231c2.7.83,2.9,5.14,2.9,5.14s7.38-3.64,10-6.62a28,28,0,0,1-2.18-1.92S371.79,229.66,369.93,231Z" style="fill:#FDD535"></path><path d="M367.38,230.13s-2.49.27-3.88,3.49c.33-6.18,3.33-6.77,3.33-6.77a3.56,3.56,0,0,1,2.55,0A3,3,0,0,0,367.38,230.13Z" style="fill:#FDD535"></path><path d="M360.76,239.48c0-.12,0-.23-.11-.24l-.25-.06.25-.13a.23.23,0,0,0,.08-.21c0-.08-.09-.12-.15-.08l-.6.33-1.56-.32,1.42-1.29.63-.07c.07,0,.12-.08.13-.17s-.05-.15-.12-.14l-.25,0,.23-.2a.28.28,0,0,0,.06-.3.13.13,0,0,0-.21-.05l-.23.21.12-.32a.15.15,0,0,0,0-.2c-.06,0-.13,0-.16.09l-.31.78-1.42,1.3.46-2.16.47-.64a.2.2,0,0,0,0-.22.1.1,0,0,0-.17,0l-.19.26.07-.34c0-.12,0-.23-.1-.24s-.17.06-.2.17l-.07.35-.07-.31c0-.08-.08-.12-.15-.09a.21.21,0,0,0-.08.21l.17.78-.45,2.15-.78-1.75,0-.85c0-.08-.05-.15-.11-.14s-.12.08-.13.17v.34l-.13-.29a.12.12,0,0,0-.21,0,.26.26,0,0,0-.06.29l.12.29-.22-.13c-.06,0-.13,0-.16.09a.18.18,0,0,0,.05.21l.55.31.77,1.75-1.55-.33-.42-.55a.09.09,0,0,0-.16,0,.2.2,0,0,0,0,.22l.17.22-.25-.05c-.08,0-.17.06-.19.18a.19.19,0,0,0,.11.24l.24.05-.24.14a.2.2,0,0,0-.08.21.11.11,0,0,0,.08.09h.06l.61-.34,1.55.33-1.42,1.29-.62.06a.17.17,0,0,0-.13.17c0,.09.05.15.11.15l.25,0-.22.21a.28.28,0,0,0-.07.3.16.16,0,0,0,.1.08.12.12,0,0,0,.12,0l.22-.21-.12.32a.17.17,0,0,0,.05.21h0a.14.14,0,0,0,.14-.1l.3-.79,1.43-1.29-.46,2.15-.47.64a.21.21,0,0,0,0,.23c0,.06.12.05.17,0l.18-.26-.07.35a.2.2,0,0,0,.11.24c.08,0,.17-.06.19-.18l.08-.34.07.31s0,.09.08.09a0,0,0,0,0,.06,0,.2.2,0,0,0,.08-.21l-.17-.77.46-2.16.77,1.76,0,.84a.13.13,0,0,0,.08.15h0A.17.17,0,0,0,359,242l0-.34.12.28a.15.15,0,0,0,.1.09.17.17,0,0,0,.11,0,.28.28,0,0,0,.07-.3l-.13-.28.22.13c.06,0,.13,0,.16-.09a.16.16,0,0,0,0-.21l-.55-.31-.78-1.76,1.56.33.41.56a.09.09,0,0,0,.06,0,.11.11,0,0,0,.11,0,.2.2,0,0,0,0-.22l-.17-.23.25.06C360.65,239.67,360.73,239.59,360.76,239.48Z" style="fill:#FDD535"></path><path d="M389.07,240.79c-2.18,4.77-3.93,8.89-5.32,12.54-3.28-6.35.17-14.43.17-14.43C385.85,238.13,387.62,239,389.07,240.79Z" style="opacity:0.1"></path><path d="M391.24,236.92a87,87,0,0,0,5.67,15.21,44.42,44.42,0,0,0,2.62,4.52L399,256a1,1,0,0,0-.61-.26c2.35.1,5.23-1.57,7.56-2.7,3.48-1.83,7-4,10.29-6.11a2.19,2.19,0,0,1,2.75,3.35c-5,5-18.6,18.14-25.6,11.23-5.28-6.62-8.57-14.45-10.61-22.6a4.37,4.37,0,0,1,8.51-2Z" style="fill:#e9b376"></path><path d="M387,230.76c5.81,2.23,11.3,17.15,11.3,17.15a59.49,59.49,0,0,1-10.5,6.44s-8-12.91-6.25-18.51S387,230.76,387,230.76Z" style="fill:#FDD535"></path><path d="M387,230.76c5.81,2.23,11.3,17.15,11.3,17.15a59.49,59.49,0,0,1-10.5,6.44s-8-12.91-6.25-18.51S387,230.76,387,230.76Z" style="fill:#fff;opacity:0.7000000000000001"></path><path d="M416.89,252.08l7.15-3.6-4.11-5.67s-5.35,1.81-5.56,6.47Z" style="fill:#ebb376"></path><polygon points="427.34 243.82 423.26 240.33 419.93 242.81 424.04 248.48 427.34 243.82" style="fill:#ebb376"></polygon></g></svg>